M48
; DRILL file {KiCad (7.0.0)} date Mon Mar 31 13:01:13 2025
; FORMAT={-:-/ absolute / inch / decimal}
; #@! TF.CreationDate,2025-03-31T13:01:13+03:00
; #@! TF.GenerationSoftware,Kicad,Pcbnew,(7.0.0)
; #@! TF.FileFunction,Plated,1,4,PTH
FMAT,2
INCH
; #@! TA.AperFunction,Plated,PTH,ViaDrill
T1C0.0157
; #@! TA.AperFunction,Plated,PTH,ComponentDrill
T2C0.0315
; #@! TA.AperFunction,Plated,PTH,ComponentDrill
T3C0.0394
%
G90
G05
T1
X4.86Y-3.1507
X5.0Y-2.9134
X5.0Y-3.248
X5.0394Y-2.5984
X5.0551Y-2.8307
X5.2362Y-3.25
X5.9646Y-2.5984
X6.5413Y-2.6732
X6.7913Y-2.752
X7.3126Y-2.935
X7.8152Y-2.8299
T2
X6.49Y-2.97
X6.59Y-2.97
X6.69Y-2.97
X6.79Y-2.97
T3
X4.86Y-3.8307
X4.96Y-3.8307
X5.06Y-3.8307
X5.16Y-3.8307
X6.3694Y-2.49
X6.4113Y-2.19
X6.4694Y-2.49
X6.5294Y-2.19
X6.5694Y-2.49
X7.362Y-3.7014
X7.362Y-3.8786
X7.372Y-3.2314
X7.372Y-3.4086
X7.618Y-3.7014
X7.618Y-3.8786
X7.628Y-3.2314
X7.628Y-3.4086
X8.3071Y-3.9764
X8.4055Y-3.9764
X8.5039Y-3.9764
T0
M30
