%TF.GenerationSoftware,KiCad,Pcbnew,(7.0.0)*%
%TF.CreationDate,2025-03-31T13:01:06+03:00*%
%TF.ProjectId,test,74657374-2e6b-4696-9361-645f70636258,rev?*%
%TF.SameCoordinates,Original*%
%TF.FileFunction,Copper,L2,Inr*%
%TF.FilePolarity,Positive*%
%FSLAX46Y46*%
G04 Gerber Fmt 4.6, Leading zero omitted, Abs format (unit mm)*
G04 Created by KiCad (PCBNEW (7.0.0)) date 2025-03-31 13:01:06*
%MOMM*%
%LPD*%
G01*
G04 APERTURE LIST*
%TA.AperFunction,ComponentPad*%
%ADD10C,1.800000*%
%TD*%
%TA.AperFunction,ComponentPad*%
%ADD11O,1.700000X1.700000*%
%TD*%
%TA.AperFunction,ComponentPad*%
%ADD12C,1.600000*%
%TD*%
%TA.AperFunction,ComponentPad*%
%ADD13C,2.000000*%
%TD*%
%TA.AperFunction,ViaPad*%
%ADD14C,0.800000*%
%TD*%
G04 APERTURE END LIST*
D10*
%TO.N,Net-(J1-Pin_3)*%
%TO.C,RV1*%
X211000000Y-101000000D03*
%TO.N,Net-(U2-IO0)*%
X213500000Y-101000000D03*
%TO.N,Net-(J1-Pin_2)*%
X216000000Y-101000000D03*
%TD*%
D11*
%TO.N,Net-(J1-Pin_1)*%
%TO.C,J1*%
X166862999Y-63245999D03*
%TO.N,Net-(J1-Pin_2)*%
X164322999Y-63245999D03*
%TO.N,Net-(J1-Pin_3)*%
X161782999Y-63245999D03*
%TD*%
D12*
%TO.N,Net-(U2-IO10)*%
%TO.C,S1*%
X187250000Y-82078000D03*
%TO.N,unconnected-(S1-Pad2)*%
X193750000Y-82078000D03*
%TO.N,unconnected-(S1-Pad3)*%
X187250000Y-86578000D03*
%TO.N,Net-(J1-Pin_3)*%
X193750000Y-86578000D03*
%TD*%
%TO.N,Net-(J1-Pin_3)*%
%TO.C,U3*%
X164846000Y-75438000D03*
%TO.N,Net-(J1-Pin_2)*%
X167386000Y-75438000D03*
%TO.N,Net-(U2-IO5)*%
X169926000Y-75438000D03*
%TO.N,Net-(U2-IO4)*%
X172466000Y-75438000D03*
%TD*%
%TO.N,Net-(U2-IO2)*%
%TO.C,S2*%
X186996000Y-94016000D03*
%TO.N,unconnected-(S2-Pad2)*%
X193496000Y-94016000D03*
%TO.N,unconnected-(S2-Pad3)*%
X186996000Y-98516000D03*
%TO.N,Net-(J1-Pin_3)*%
X193496000Y-98516000D03*
%TD*%
D13*
%TO.N,Net-(J1-Pin_1)*%
%TO.C,J2*%
X165847000Y-55626000D03*
%TO.N,Net-(J1-Pin_3)*%
X162847000Y-55626000D03*
%TD*%
D10*
%TO.N,Net-(J1-Pin_2)*%
%TO.C,U1*%
X123444000Y-97301000D03*
%TO.N,Net-(U1-TRIG)*%
X125984000Y-97301000D03*
%TO.N,Net-(U1-ECHO)*%
X128524000Y-97301000D03*
%TO.N,Net-(J1-Pin_3)*%
X131064000Y-97301000D03*
%TD*%
D14*
%TO.N,Net-(U2-IO0)*%
X198506200Y-71880500D03*
%TO.N,Net-(U2-IO2)*%
X185739400Y-74550000D03*
%TO.N,Net-(U1-TRIG)*%
X128400000Y-71900000D03*
%TO.N,Net-(U1-ECHO)*%
X127000000Y-82500000D03*
X133000000Y-82550000D03*
X127000000Y-74000000D03*
%TO.N,Net-(U2-IO4)*%
X172500000Y-69900000D03*
%TO.N,Net-(U2-IO5)*%
X166150000Y-67900000D03*
%TO.N,Net-(J1-Pin_2)*%
X151500000Y-66000000D03*
X128000000Y-66000000D03*
X123444000Y-80028600D03*
%TD*%
%TA.AperFunction,NonConductor*%
G36*
X218637500Y-50317113D02*
G01*
X218682887Y-50362500D01*
X218699500Y-50424500D01*
X218699500Y-104575500D01*
X218682887Y-104637500D01*
X218637500Y-104682887D01*
X218575500Y-104699500D01*
X115424500Y-104699500D01*
X115362500Y-104682887D01*
X115317113Y-104637500D01*
X115300500Y-104575500D01*
X115300500Y-101000000D01*
X209594700Y-101000000D01*
X209595124Y-101005117D01*
X209613441Y-101226186D01*
X209613442Y-101226195D01*
X209613866Y-101231305D01*
X209615123Y-101236272D01*
X209615125Y-101236279D01*
X209669584Y-101451329D01*
X209670843Y-101456300D01*
X209672903Y-101460996D01*
X209762016Y-101664154D01*
X209762019Y-101664159D01*
X209764076Y-101668849D01*
X209817106Y-101750017D01*
X209888219Y-101858865D01*
X209888222Y-101858869D01*
X209891021Y-101863153D01*
X210048216Y-102033913D01*
X210231374Y-102176470D01*
X210435497Y-102286936D01*
X210655019Y-102362298D01*
X210883951Y-102400500D01*
X211110916Y-102400500D01*
X211116049Y-102400500D01*
X211344981Y-102362298D01*
X211564503Y-102286936D01*
X211768626Y-102176470D01*
X211951784Y-102033913D01*
X212108979Y-101863153D01*
X212146190Y-101806196D01*
X212190982Y-101764962D01*
X212250000Y-101750017D01*
X212309018Y-101764962D01*
X212353809Y-101806196D01*
X212388215Y-101858860D01*
X212388222Y-101858869D01*
X212391021Y-101863153D01*
X212548216Y-102033913D01*
X212731374Y-102176470D01*
X212935497Y-102286936D01*
X213155019Y-102362298D01*
X213383951Y-102400500D01*
X213610916Y-102400500D01*
X213616049Y-102400500D01*
X213844981Y-102362298D01*
X214064503Y-102286936D01*
X214268626Y-102176470D01*
X214451784Y-102033913D01*
X214608979Y-101863153D01*
X214646190Y-101806196D01*
X214690982Y-101764962D01*
X214750000Y-101750017D01*
X214809018Y-101764962D01*
X214853809Y-101806196D01*
X214888215Y-101858860D01*
X214888222Y-101858869D01*
X214891021Y-101863153D01*
X215048216Y-102033913D01*
X215231374Y-102176470D01*
X215435497Y-102286936D01*
X215655019Y-102362298D01*
X215883951Y-102400500D01*
X216110916Y-102400500D01*
X216116049Y-102400500D01*
X216344981Y-102362298D01*
X216564503Y-102286936D01*
X216768626Y-102176470D01*
X216951784Y-102033913D01*
X217108979Y-101863153D01*
X217235924Y-101668849D01*
X217329157Y-101456300D01*
X217386134Y-101231305D01*
X217405300Y-101000000D01*
X217386134Y-100768695D01*
X217329157Y-100543700D01*
X217235924Y-100331151D01*
X217108979Y-100136847D01*
X216951784Y-99966087D01*
X216768626Y-99823530D01*
X216714497Y-99794237D01*
X216569007Y-99715501D01*
X216569002Y-99715499D01*
X216564503Y-99713064D01*
X216559657Y-99711400D01*
X216559654Y-99711399D01*
X216349834Y-99639368D01*
X216349833Y-99639367D01*
X216344981Y-99637702D01*
X216339931Y-99636859D01*
X216339922Y-99636857D01*
X216121111Y-99600344D01*
X216121102Y-99600343D01*
X216116049Y-99599500D01*
X215883951Y-99599500D01*
X215878898Y-99600343D01*
X215878888Y-99600344D01*
X215660077Y-99636857D01*
X215660065Y-99636859D01*
X215655019Y-99637702D01*
X215650169Y-99639366D01*
X215650165Y-99639368D01*
X215440345Y-99711399D01*
X215440337Y-99711402D01*
X215435497Y-99713064D01*
X215431001Y-99715496D01*
X215430992Y-99715501D01*
X215235882Y-99821090D01*
X215235878Y-99821092D01*
X215231374Y-99823530D01*
X215227334Y-99826674D01*
X215227327Y-99826679D01*
X215052263Y-99962936D01*
X215052255Y-99962943D01*
X215048216Y-99966087D01*
X215044746Y-99969855D01*
X215044742Y-99969860D01*
X214894491Y-100133077D01*
X214894488Y-100133080D01*
X214891021Y-100136847D01*
X214888226Y-100141124D01*
X214888219Y-100141134D01*
X214853809Y-100193804D01*
X214809017Y-100235037D01*
X214750000Y-100249982D01*
X214690983Y-100235037D01*
X214646191Y-100193804D01*
X214611780Y-100141134D01*
X214611778Y-100141132D01*
X214608979Y-100136847D01*
X214451784Y-99966087D01*
X214268626Y-99823530D01*
X214214497Y-99794237D01*
X214069007Y-99715501D01*
X214069002Y-99715499D01*
X214064503Y-99713064D01*
X214059657Y-99711400D01*
X214059654Y-99711399D01*
X213849834Y-99639368D01*
X213849833Y-99639367D01*
X213844981Y-99637702D01*
X213839931Y-99636859D01*
X213839922Y-99636857D01*
X213621111Y-99600344D01*
X213621102Y-99600343D01*
X213616049Y-99599500D01*
X213383951Y-99599500D01*
X213378898Y-99600343D01*
X213378888Y-99600344D01*
X213160077Y-99636857D01*
X213160065Y-99636859D01*
X213155019Y-99637702D01*
X213150169Y-99639366D01*
X213150165Y-99639368D01*
X212940345Y-99711399D01*
X212940337Y-99711402D01*
X212935497Y-99713064D01*
X212931001Y-99715496D01*
X212930992Y-99715501D01*
X212735882Y-99821090D01*
X212735878Y-99821092D01*
X212731374Y-99823530D01*
X212727334Y-99826674D01*
X212727327Y-99826679D01*
X212552263Y-99962936D01*
X212552255Y-99962943D01*
X212548216Y-99966087D01*
X212544746Y-99969855D01*
X212544742Y-99969860D01*
X212394491Y-100133077D01*
X212394488Y-100133080D01*
X212391021Y-100136847D01*
X212388226Y-100141124D01*
X212388219Y-100141134D01*
X212353809Y-100193804D01*
X212309017Y-100235037D01*
X212250000Y-100249982D01*
X212190983Y-100235037D01*
X212146191Y-100193804D01*
X212111780Y-100141134D01*
X212111778Y-100141132D01*
X212108979Y-100136847D01*
X211951784Y-99966087D01*
X211768626Y-99823530D01*
X211714497Y-99794237D01*
X211569007Y-99715501D01*
X211569002Y-99715499D01*
X211564503Y-99713064D01*
X211559657Y-99711400D01*
X211559654Y-99711399D01*
X211349834Y-99639368D01*
X211349833Y-99639367D01*
X211344981Y-99637702D01*
X211339931Y-99636859D01*
X211339922Y-99636857D01*
X211121111Y-99600344D01*
X211121102Y-99600343D01*
X211116049Y-99599500D01*
X210883951Y-99599500D01*
X210878898Y-99600343D01*
X210878888Y-99600344D01*
X210660077Y-99636857D01*
X210660065Y-99636859D01*
X210655019Y-99637702D01*
X210650169Y-99639366D01*
X210650165Y-99639368D01*
X210440345Y-99711399D01*
X210440337Y-99711402D01*
X210435497Y-99713064D01*
X210431001Y-99715496D01*
X210430992Y-99715501D01*
X210235882Y-99821090D01*
X210235878Y-99821092D01*
X210231374Y-99823530D01*
X210227334Y-99826674D01*
X210227327Y-99826679D01*
X210052263Y-99962936D01*
X210052255Y-99962943D01*
X210048216Y-99966087D01*
X210044746Y-99969855D01*
X210044742Y-99969860D01*
X209894491Y-100133077D01*
X209894488Y-100133080D01*
X209891021Y-100136847D01*
X209888226Y-100141124D01*
X209888219Y-100141134D01*
X209826870Y-100235037D01*
X209764076Y-100331151D01*
X209762021Y-100335835D01*
X209762016Y-100335845D01*
X209672903Y-100539003D01*
X209670843Y-100543700D01*
X209669585Y-100548665D01*
X209669584Y-100548670D01*
X209615125Y-100763720D01*
X209615123Y-100763729D01*
X209613866Y-100768695D01*
X209613442Y-100773802D01*
X209613441Y-100773813D01*
X209595200Y-100993955D01*
X209594700Y-101000000D01*
X115300500Y-101000000D01*
X115300500Y-97301000D01*
X122038700Y-97301000D01*
X122039124Y-97306117D01*
X122057441Y-97527186D01*
X122057442Y-97527195D01*
X122057866Y-97532305D01*
X122059123Y-97537272D01*
X122059125Y-97537279D01*
X122093503Y-97673031D01*
X122114843Y-97757300D01*
X122116903Y-97761996D01*
X122206016Y-97965154D01*
X122206019Y-97965159D01*
X122208076Y-97969849D01*
X122241106Y-98020405D01*
X122332219Y-98159865D01*
X122332222Y-98159869D01*
X122335021Y-98164153D01*
X122492216Y-98334913D01*
X122675374Y-98477470D01*
X122879497Y-98587936D01*
X123099019Y-98663298D01*
X123327951Y-98701500D01*
X123554916Y-98701500D01*
X123560049Y-98701500D01*
X123788981Y-98663298D01*
X124008503Y-98587936D01*
X124212626Y-98477470D01*
X124395784Y-98334913D01*
X124552979Y-98164153D01*
X124610189Y-98076585D01*
X124654981Y-98035351D01*
X124713998Y-98020405D01*
X124773016Y-98035350D01*
X124817807Y-98076583D01*
X124872213Y-98159857D01*
X124872221Y-98159867D01*
X124875021Y-98164153D01*
X125032216Y-98334913D01*
X125215374Y-98477470D01*
X125419497Y-98587936D01*
X125639019Y-98663298D01*
X125867951Y-98701500D01*
X126094916Y-98701500D01*
X126100049Y-98701500D01*
X126328981Y-98663298D01*
X126548503Y-98587936D01*
X126752626Y-98477470D01*
X126935784Y-98334913D01*
X127092979Y-98164153D01*
X127150189Y-98076585D01*
X127194981Y-98035351D01*
X127253998Y-98020405D01*
X127313016Y-98035350D01*
X127357807Y-98076583D01*
X127412213Y-98159857D01*
X127412221Y-98159867D01*
X127415021Y-98164153D01*
X127572216Y-98334913D01*
X127755374Y-98477470D01*
X127959497Y-98587936D01*
X128179019Y-98663298D01*
X128407951Y-98701500D01*
X128634916Y-98701500D01*
X128640049Y-98701500D01*
X128868981Y-98663298D01*
X129088503Y-98587936D01*
X129292626Y-98477470D01*
X129475784Y-98334913D01*
X129632979Y-98164153D01*
X129690189Y-98076585D01*
X129734981Y-98035351D01*
X129793998Y-98020405D01*
X129853016Y-98035350D01*
X129897807Y-98076583D01*
X129952213Y-98159857D01*
X129952221Y-98159867D01*
X129955021Y-98164153D01*
X130112216Y-98334913D01*
X130295374Y-98477470D01*
X130499497Y-98587936D01*
X130719019Y-98663298D01*
X130947951Y-98701500D01*
X131174916Y-98701500D01*
X131180049Y-98701500D01*
X131408981Y-98663298D01*
X131628503Y-98587936D01*
X131761429Y-98516000D01*
X185690532Y-98516000D01*
X185691004Y-98521395D01*
X185696825Y-98587936D01*
X185710365Y-98742692D01*
X185711762Y-98747907D01*
X185711764Y-98747916D01*
X185767858Y-98957263D01*
X185767861Y-98957271D01*
X185769261Y-98962496D01*
X185865432Y-99168734D01*
X185995953Y-99355139D01*
X186156861Y-99516047D01*
X186343266Y-99646568D01*
X186549504Y-99742739D01*
X186769308Y-99801635D01*
X186996000Y-99821468D01*
X187222692Y-99801635D01*
X187442496Y-99742739D01*
X187648734Y-99646568D01*
X187835139Y-99516047D01*
X187996047Y-99355139D01*
X188126568Y-99168734D01*
X188222739Y-98962496D01*
X188281635Y-98742692D01*
X188301468Y-98516000D01*
X192190532Y-98516000D01*
X192191004Y-98521395D01*
X192196825Y-98587936D01*
X192210365Y-98742692D01*
X192211762Y-98747907D01*
X192211764Y-98747916D01*
X192267858Y-98957263D01*
X192267861Y-98957271D01*
X192269261Y-98962496D01*
X192365432Y-99168734D01*
X192495953Y-99355139D01*
X192656861Y-99516047D01*
X192843266Y-99646568D01*
X193049504Y-99742739D01*
X193269308Y-99801635D01*
X193496000Y-99821468D01*
X193722692Y-99801635D01*
X193942496Y-99742739D01*
X194148734Y-99646568D01*
X194335139Y-99516047D01*
X194496047Y-99355139D01*
X194626568Y-99168734D01*
X194722739Y-98962496D01*
X194781635Y-98742692D01*
X194801468Y-98516000D01*
X194781635Y-98289308D01*
X194722739Y-98069504D01*
X194626568Y-97863266D01*
X194496047Y-97676861D01*
X194335139Y-97515953D01*
X194148734Y-97385432D01*
X193942496Y-97289261D01*
X193937271Y-97287861D01*
X193937263Y-97287858D01*
X193727916Y-97231764D01*
X193727907Y-97231762D01*
X193722692Y-97230365D01*
X193717304Y-97229893D01*
X193717301Y-97229893D01*
X193501395Y-97211004D01*
X193496000Y-97210532D01*
X193490605Y-97211004D01*
X193274698Y-97229893D01*
X193274693Y-97229893D01*
X193269308Y-97230365D01*
X193264094Y-97231762D01*
X193264083Y-97231764D01*
X193054736Y-97287858D01*
X193054724Y-97287862D01*
X193049504Y-97289261D01*
X193044599Y-97291547D01*
X193044594Y-97291550D01*
X192848176Y-97383142D01*
X192848172Y-97383144D01*
X192843266Y-97385432D01*
X192838833Y-97388535D01*
X192838826Y-97388540D01*
X192661296Y-97512847D01*
X192661291Y-97512850D01*
X192656861Y-97515953D01*
X192653037Y-97519776D01*
X192653031Y-97519782D01*
X192499782Y-97673031D01*
X192499776Y-97673037D01*
X192495953Y-97676861D01*
X192492850Y-97681291D01*
X192492847Y-97681296D01*
X192368540Y-97858826D01*
X192368535Y-97858833D01*
X192365432Y-97863266D01*
X192363144Y-97868172D01*
X192363142Y-97868176D01*
X192271550Y-98064594D01*
X192271547Y-98064599D01*
X192269261Y-98069504D01*
X192267862Y-98074724D01*
X192267858Y-98074736D01*
X192211764Y-98284083D01*
X192211762Y-98284094D01*
X192210365Y-98289308D01*
X192209893Y-98294693D01*
X192209893Y-98294698D01*
X192191004Y-98510605D01*
X192190532Y-98516000D01*
X188301468Y-98516000D01*
X188281635Y-98289308D01*
X188222739Y-98069504D01*
X188126568Y-97863266D01*
X187996047Y-97676861D01*
X187835139Y-97515953D01*
X187648734Y-97385432D01*
X187442496Y-97289261D01*
X187437271Y-97287861D01*
X187437263Y-97287858D01*
X187227916Y-97231764D01*
X187227907Y-97231762D01*
X187222692Y-97230365D01*
X187217304Y-97229893D01*
X187217301Y-97229893D01*
X187001395Y-97211004D01*
X186996000Y-97210532D01*
X186990605Y-97211004D01*
X186774698Y-97229893D01*
X186774693Y-97229893D01*
X186769308Y-97230365D01*
X186764094Y-97231762D01*
X186764083Y-97231764D01*
X186554736Y-97287858D01*
X186554724Y-97287862D01*
X186549504Y-97289261D01*
X186544599Y-97291547D01*
X186544594Y-97291550D01*
X186348176Y-97383142D01*
X186348172Y-97383144D01*
X186343266Y-97385432D01*
X186338833Y-97388535D01*
X186338826Y-97388540D01*
X186161296Y-97512847D01*
X186161291Y-97512850D01*
X186156861Y-97515953D01*
X186153037Y-97519776D01*
X186153031Y-97519782D01*
X185999782Y-97673031D01*
X185999776Y-97673037D01*
X185995953Y-97676861D01*
X185992850Y-97681291D01*
X185992847Y-97681296D01*
X185868540Y-97858826D01*
X185868535Y-97858833D01*
X185865432Y-97863266D01*
X185863144Y-97868172D01*
X185863142Y-97868176D01*
X185771550Y-98064594D01*
X185771547Y-98064599D01*
X185769261Y-98069504D01*
X185767862Y-98074724D01*
X185767858Y-98074736D01*
X185711764Y-98284083D01*
X185711762Y-98284094D01*
X185710365Y-98289308D01*
X185709893Y-98294693D01*
X185709893Y-98294698D01*
X185691004Y-98510605D01*
X185690532Y-98516000D01*
X131761429Y-98516000D01*
X131832626Y-98477470D01*
X132015784Y-98334913D01*
X132172979Y-98164153D01*
X132299924Y-97969849D01*
X132393157Y-97757300D01*
X132450134Y-97532305D01*
X132469300Y-97301000D01*
X132450134Y-97069695D01*
X132393157Y-96844700D01*
X132299924Y-96632151D01*
X132172979Y-96437847D01*
X132015784Y-96267087D01*
X131832626Y-96124530D01*
X131778497Y-96095237D01*
X131633007Y-96016501D01*
X131633002Y-96016499D01*
X131628503Y-96014064D01*
X131623657Y-96012400D01*
X131623654Y-96012399D01*
X131413834Y-95940368D01*
X131413833Y-95940367D01*
X131408981Y-95938702D01*
X131403931Y-95937859D01*
X131403922Y-95937857D01*
X131185111Y-95901344D01*
X131185102Y-95901343D01*
X131180049Y-95900500D01*
X130947951Y-95900500D01*
X130942898Y-95901343D01*
X130942888Y-95901344D01*
X130724077Y-95937857D01*
X130724065Y-95937859D01*
X130719019Y-95938702D01*
X130714169Y-95940366D01*
X130714165Y-95940368D01*
X130504345Y-96012399D01*
X130504337Y-96012402D01*
X130499497Y-96014064D01*
X130495001Y-96016496D01*
X130494992Y-96016501D01*
X130299882Y-96122090D01*
X130299878Y-96122092D01*
X130295374Y-96124530D01*
X130291334Y-96127674D01*
X130291327Y-96127679D01*
X130116263Y-96263936D01*
X130116255Y-96263943D01*
X130112216Y-96267087D01*
X130108746Y-96270855D01*
X130108742Y-96270860D01*
X129958491Y-96434077D01*
X129958488Y-96434080D01*
X129955021Y-96437847D01*
X129952225Y-96442126D01*
X129952213Y-96442142D01*
X129897808Y-96525416D01*
X129853017Y-96566649D01*
X129794000Y-96581594D01*
X129734983Y-96566649D01*
X129690192Y-96525416D01*
X129635786Y-96442142D01*
X129635780Y-96442134D01*
X129632979Y-96437847D01*
X129475784Y-96267087D01*
X129292626Y-96124530D01*
X129238497Y-96095237D01*
X129093007Y-96016501D01*
X129093002Y-96016499D01*
X129088503Y-96014064D01*
X129083657Y-96012400D01*
X129083654Y-96012399D01*
X128873834Y-95940368D01*
X128873833Y-95940367D01*
X128868981Y-95938702D01*
X128863931Y-95937859D01*
X128863922Y-95937857D01*
X128645111Y-95901344D01*
X128645102Y-95901343D01*
X128640049Y-95900500D01*
X128407951Y-95900500D01*
X128402898Y-95901343D01*
X128402888Y-95901344D01*
X128184077Y-95937857D01*
X128184065Y-95937859D01*
X128179019Y-95938702D01*
X128174169Y-95940366D01*
X128174165Y-95940368D01*
X127964345Y-96012399D01*
X127964337Y-96012402D01*
X127959497Y-96014064D01*
X127955001Y-96016496D01*
X127954992Y-96016501D01*
X127759882Y-96122090D01*
X127759878Y-96122092D01*
X127755374Y-96124530D01*
X127751334Y-96127674D01*
X127751327Y-96127679D01*
X127576263Y-96263936D01*
X127576255Y-96263943D01*
X127572216Y-96267087D01*
X127568746Y-96270855D01*
X127568742Y-96270860D01*
X127418491Y-96434077D01*
X127418488Y-96434080D01*
X127415021Y-96437847D01*
X127412225Y-96442126D01*
X127412213Y-96442142D01*
X127357808Y-96525416D01*
X127313017Y-96566649D01*
X127254000Y-96581594D01*
X127194983Y-96566649D01*
X127150192Y-96525416D01*
X127095786Y-96442142D01*
X127095780Y-96442134D01*
X127092979Y-96437847D01*
X126935784Y-96267087D01*
X126752626Y-96124530D01*
X126698497Y-96095237D01*
X126553007Y-96016501D01*
X126553002Y-96016499D01*
X126548503Y-96014064D01*
X126543657Y-96012400D01*
X126543654Y-96012399D01*
X126333834Y-95940368D01*
X126333833Y-95940367D01*
X126328981Y-95938702D01*
X126323931Y-95937859D01*
X126323922Y-95937857D01*
X126105111Y-95901344D01*
X126105102Y-95901343D01*
X126100049Y-95900500D01*
X125867951Y-95900500D01*
X125862898Y-95901343D01*
X125862888Y-95901344D01*
X125644077Y-95937857D01*
X125644065Y-95937859D01*
X125639019Y-95938702D01*
X125634169Y-95940366D01*
X125634165Y-95940368D01*
X125424345Y-96012399D01*
X125424337Y-96012402D01*
X125419497Y-96014064D01*
X125415001Y-96016496D01*
X125414992Y-96016501D01*
X125219882Y-96122090D01*
X125219878Y-96122092D01*
X125215374Y-96124530D01*
X125211334Y-96127674D01*
X125211327Y-96127679D01*
X125036263Y-96263936D01*
X125036255Y-96263943D01*
X125032216Y-96267087D01*
X125028746Y-96270855D01*
X125028742Y-96270860D01*
X124878491Y-96434077D01*
X124878488Y-96434080D01*
X124875021Y-96437847D01*
X124872225Y-96442126D01*
X124872213Y-96442142D01*
X124817808Y-96525416D01*
X124773017Y-96566649D01*
X124714000Y-96581594D01*
X124654983Y-96566649D01*
X124610192Y-96525416D01*
X124555786Y-96442142D01*
X124555780Y-96442134D01*
X124552979Y-96437847D01*
X124395784Y-96267087D01*
X124212626Y-96124530D01*
X124158497Y-96095237D01*
X124013007Y-96016501D01*
X124013002Y-96016499D01*
X124008503Y-96014064D01*
X124003657Y-96012400D01*
X124003654Y-96012399D01*
X123793834Y-95940368D01*
X123793833Y-95940367D01*
X123788981Y-95938702D01*
X123783931Y-95937859D01*
X123783922Y-95937857D01*
X123565111Y-95901344D01*
X123565102Y-95901343D01*
X123560049Y-95900500D01*
X123327951Y-95900500D01*
X123322898Y-95901343D01*
X123322888Y-95901344D01*
X123104077Y-95937857D01*
X123104065Y-95937859D01*
X123099019Y-95938702D01*
X123094169Y-95940366D01*
X123094165Y-95940368D01*
X122884345Y-96012399D01*
X122884337Y-96012402D01*
X122879497Y-96014064D01*
X122875001Y-96016496D01*
X122874992Y-96016501D01*
X122679882Y-96122090D01*
X122679878Y-96122092D01*
X122675374Y-96124530D01*
X122671334Y-96127674D01*
X122671327Y-96127679D01*
X122496263Y-96263936D01*
X122496255Y-96263943D01*
X122492216Y-96267087D01*
X122488746Y-96270855D01*
X122488742Y-96270860D01*
X122338491Y-96434077D01*
X122338488Y-96434080D01*
X122335021Y-96437847D01*
X122332226Y-96442124D01*
X122332219Y-96442134D01*
X122210878Y-96627862D01*
X122208076Y-96632151D01*
X122206021Y-96636835D01*
X122206016Y-96636845D01*
X122116903Y-96840003D01*
X122114843Y-96844700D01*
X122113585Y-96849665D01*
X122113584Y-96849670D01*
X122059125Y-97064720D01*
X122059123Y-97064729D01*
X122057866Y-97069695D01*
X122057442Y-97074802D01*
X122057441Y-97074813D01*
X122046196Y-97210532D01*
X122038700Y-97301000D01*
X115300500Y-97301000D01*
X115300500Y-94016000D01*
X185690532Y-94016000D01*
X185710365Y-94242692D01*
X185711762Y-94247907D01*
X185711764Y-94247916D01*
X185767858Y-94457263D01*
X185767861Y-94457271D01*
X185769261Y-94462496D01*
X185865432Y-94668734D01*
X185995953Y-94855139D01*
X186156861Y-95016047D01*
X186343266Y-95146568D01*
X186549504Y-95242739D01*
X186769308Y-95301635D01*
X186996000Y-95321468D01*
X187222692Y-95301635D01*
X187442496Y-95242739D01*
X187648734Y-95146568D01*
X187835139Y-95016047D01*
X187996047Y-94855139D01*
X188126568Y-94668734D01*
X188222739Y-94462496D01*
X188281635Y-94242692D01*
X188301468Y-94016000D01*
X192190532Y-94016000D01*
X192210365Y-94242692D01*
X192211762Y-94247907D01*
X192211764Y-94247916D01*
X192267858Y-94457263D01*
X192267861Y-94457271D01*
X192269261Y-94462496D01*
X192365432Y-94668734D01*
X192495953Y-94855139D01*
X192656861Y-95016047D01*
X192843266Y-95146568D01*
X193049504Y-95242739D01*
X193269308Y-95301635D01*
X193496000Y-95321468D01*
X193722692Y-95301635D01*
X193942496Y-95242739D01*
X194148734Y-95146568D01*
X194335139Y-95016047D01*
X194496047Y-94855139D01*
X194626568Y-94668734D01*
X194722739Y-94462496D01*
X194781635Y-94242692D01*
X194801468Y-94016000D01*
X194781635Y-93789308D01*
X194722739Y-93569504D01*
X194626568Y-93363266D01*
X194496047Y-93176861D01*
X194335139Y-93015953D01*
X194148734Y-92885432D01*
X193942496Y-92789261D01*
X193937271Y-92787861D01*
X193937263Y-92787858D01*
X193727916Y-92731764D01*
X193727907Y-92731762D01*
X193722692Y-92730365D01*
X193717304Y-92729893D01*
X193717301Y-92729893D01*
X193501395Y-92711004D01*
X193496000Y-92710532D01*
X193490605Y-92711004D01*
X193274698Y-92729893D01*
X193274693Y-92729893D01*
X193269308Y-92730365D01*
X193264094Y-92731762D01*
X193264083Y-92731764D01*
X193054736Y-92787858D01*
X193054724Y-92787862D01*
X193049504Y-92789261D01*
X193044599Y-92791547D01*
X193044594Y-92791550D01*
X192848176Y-92883142D01*
X192848172Y-92883144D01*
X192843266Y-92885432D01*
X192838833Y-92888535D01*
X192838826Y-92888540D01*
X192661296Y-93012847D01*
X192661291Y-93012850D01*
X192656861Y-93015953D01*
X192653037Y-93019776D01*
X192653031Y-93019782D01*
X192499782Y-93173031D01*
X192499776Y-93173037D01*
X192495953Y-93176861D01*
X192492850Y-93181291D01*
X192492847Y-93181296D01*
X192368540Y-93358826D01*
X192368535Y-93358833D01*
X192365432Y-93363266D01*
X192363144Y-93368172D01*
X192363142Y-93368176D01*
X192271550Y-93564594D01*
X192271547Y-93564599D01*
X192269261Y-93569504D01*
X192267862Y-93574724D01*
X192267858Y-93574736D01*
X192211764Y-93784083D01*
X192211762Y-93784094D01*
X192210365Y-93789308D01*
X192190532Y-94016000D01*
X188301468Y-94016000D01*
X188281635Y-93789308D01*
X188222739Y-93569504D01*
X188126568Y-93363266D01*
X187996047Y-93176861D01*
X187835139Y-93015953D01*
X187648734Y-92885432D01*
X187442496Y-92789261D01*
X187437271Y-92787861D01*
X187437263Y-92787858D01*
X187227916Y-92731764D01*
X187227907Y-92731762D01*
X187222692Y-92730365D01*
X187217304Y-92729893D01*
X187217301Y-92729893D01*
X187001395Y-92711004D01*
X186996000Y-92710532D01*
X186990605Y-92711004D01*
X186774698Y-92729893D01*
X186774693Y-92729893D01*
X186769308Y-92730365D01*
X186764094Y-92731762D01*
X186764083Y-92731764D01*
X186554736Y-92787858D01*
X186554724Y-92787862D01*
X186549504Y-92789261D01*
X186544599Y-92791547D01*
X186544594Y-92791550D01*
X186348176Y-92883142D01*
X186348172Y-92883144D01*
X186343266Y-92885432D01*
X186338833Y-92888535D01*
X186338826Y-92888540D01*
X186161296Y-93012847D01*
X186161291Y-93012850D01*
X186156861Y-93015953D01*
X186153037Y-93019776D01*
X186153031Y-93019782D01*
X185999782Y-93173031D01*
X185999776Y-93173037D01*
X185995953Y-93176861D01*
X185992850Y-93181291D01*
X185992847Y-93181296D01*
X185868540Y-93358826D01*
X185868535Y-93358833D01*
X185865432Y-93363266D01*
X185863144Y-93368172D01*
X185863142Y-93368176D01*
X185771550Y-93564594D01*
X185771547Y-93564599D01*
X185769261Y-93569504D01*
X185767862Y-93574724D01*
X185767858Y-93574736D01*
X185711764Y-93784083D01*
X185711762Y-93784094D01*
X185710365Y-93789308D01*
X185690532Y-94016000D01*
X115300500Y-94016000D01*
X115300500Y-86578000D01*
X185944532Y-86578000D01*
X185964365Y-86804692D01*
X185965762Y-86809907D01*
X185965764Y-86809916D01*
X186021858Y-87019263D01*
X186021861Y-87019271D01*
X186023261Y-87024496D01*
X186119432Y-87230734D01*
X186249953Y-87417139D01*
X186410861Y-87578047D01*
X186597266Y-87708568D01*
X186803504Y-87804739D01*
X187023308Y-87863635D01*
X187250000Y-87883468D01*
X187476692Y-87863635D01*
X187696496Y-87804739D01*
X187902734Y-87708568D01*
X188089139Y-87578047D01*
X188250047Y-87417139D01*
X188380568Y-87230734D01*
X188476739Y-87024496D01*
X188535635Y-86804692D01*
X188555468Y-86578000D01*
X192444532Y-86578000D01*
X192464365Y-86804692D01*
X192465762Y-86809907D01*
X192465764Y-86809916D01*
X192521858Y-87019263D01*
X192521861Y-87019271D01*
X192523261Y-87024496D01*
X192619432Y-87230734D01*
X192749953Y-87417139D01*
X192910861Y-87578047D01*
X193097266Y-87708568D01*
X193303504Y-87804739D01*
X193523308Y-87863635D01*
X193750000Y-87883468D01*
X193976692Y-87863635D01*
X194196496Y-87804739D01*
X194402734Y-87708568D01*
X194589139Y-87578047D01*
X194750047Y-87417139D01*
X194880568Y-87230734D01*
X194976739Y-87024496D01*
X195035635Y-86804692D01*
X195055468Y-86578000D01*
X195035635Y-86351308D01*
X194976739Y-86131504D01*
X194880568Y-85925266D01*
X194750047Y-85738861D01*
X194589139Y-85577953D01*
X194402734Y-85447432D01*
X194196496Y-85351261D01*
X194191271Y-85349861D01*
X194191263Y-85349858D01*
X193981916Y-85293764D01*
X193981907Y-85293762D01*
X193976692Y-85292365D01*
X193971304Y-85291893D01*
X193971301Y-85291893D01*
X193755395Y-85273004D01*
X193750000Y-85272532D01*
X193744605Y-85273004D01*
X193528698Y-85291893D01*
X193528693Y-85291893D01*
X193523308Y-85292365D01*
X193518094Y-85293762D01*
X193518083Y-85293764D01*
X193308736Y-85349858D01*
X193308724Y-85349862D01*
X193303504Y-85351261D01*
X193298599Y-85353547D01*
X193298594Y-85353550D01*
X193102176Y-85445142D01*
X193102172Y-85445144D01*
X193097266Y-85447432D01*
X193092833Y-85450535D01*
X193092826Y-85450540D01*
X192915296Y-85574847D01*
X192915291Y-85574850D01*
X192910861Y-85577953D01*
X192907037Y-85581776D01*
X192907031Y-85581782D01*
X192753782Y-85735031D01*
X192753776Y-85735037D01*
X192749953Y-85738861D01*
X192746850Y-85743291D01*
X192746847Y-85743296D01*
X192622540Y-85920826D01*
X192622535Y-85920833D01*
X192619432Y-85925266D01*
X192617144Y-85930172D01*
X192617142Y-85930176D01*
X192525550Y-86126594D01*
X192525547Y-86126599D01*
X192523261Y-86131504D01*
X192521862Y-86136724D01*
X192521858Y-86136736D01*
X192465764Y-86346083D01*
X192465762Y-86346094D01*
X192464365Y-86351308D01*
X192444532Y-86578000D01*
X188555468Y-86578000D01*
X188535635Y-86351308D01*
X188476739Y-86131504D01*
X188380568Y-85925266D01*
X188250047Y-85738861D01*
X188089139Y-85577953D01*
X187902734Y-85447432D01*
X187696496Y-85351261D01*
X187691271Y-85349861D01*
X187691263Y-85349858D01*
X187481916Y-85293764D01*
X187481907Y-85293762D01*
X187476692Y-85292365D01*
X187471304Y-85291893D01*
X187471301Y-85291893D01*
X187255395Y-85273004D01*
X187250000Y-85272532D01*
X187244605Y-85273004D01*
X187028698Y-85291893D01*
X187028693Y-85291893D01*
X187023308Y-85292365D01*
X187018094Y-85293762D01*
X187018083Y-85293764D01*
X186808736Y-85349858D01*
X186808724Y-85349862D01*
X186803504Y-85351261D01*
X186798599Y-85353547D01*
X186798594Y-85353550D01*
X186602176Y-85445142D01*
X186602172Y-85445144D01*
X186597266Y-85447432D01*
X186592833Y-85450535D01*
X186592826Y-85450540D01*
X186415296Y-85574847D01*
X186415291Y-85574850D01*
X186410861Y-85577953D01*
X186407037Y-85581776D01*
X186407031Y-85581782D01*
X186253782Y-85735031D01*
X186253776Y-85735037D01*
X186249953Y-85738861D01*
X186246850Y-85743291D01*
X186246847Y-85743296D01*
X186122540Y-85920826D01*
X186122535Y-85920833D01*
X186119432Y-85925266D01*
X186117144Y-85930172D01*
X186117142Y-85930176D01*
X186025550Y-86126594D01*
X186025547Y-86126599D01*
X186023261Y-86131504D01*
X186021862Y-86136724D01*
X186021858Y-86136736D01*
X185965764Y-86346083D01*
X185965762Y-86346094D01*
X185964365Y-86351308D01*
X185944532Y-86578000D01*
X115300500Y-86578000D01*
X115300500Y-82500000D01*
X126094540Y-82500000D01*
X126095219Y-82506460D01*
X126113646Y-82681795D01*
X126113647Y-82681803D01*
X126114326Y-82688256D01*
X126116331Y-82694428D01*
X126116333Y-82694435D01*
X126170813Y-82862105D01*
X126172821Y-82868284D01*
X126176068Y-82873908D01*
X126176069Y-82873910D01*
X126204936Y-82923910D01*
X126267467Y-83032216D01*
X126271811Y-83037041D01*
X126271813Y-83037043D01*
X126389779Y-83168057D01*
X126394129Y-83172888D01*
X126399387Y-83176708D01*
X126399388Y-83176709D01*
X126446389Y-83210857D01*
X126547270Y-83284151D01*
X126720197Y-83361144D01*
X126905354Y-83400500D01*
X127088143Y-83400500D01*
X127094646Y-83400500D01*
X127279803Y-83361144D01*
X127452730Y-83284151D01*
X127605871Y-83172888D01*
X127732533Y-83032216D01*
X127827179Y-82868284D01*
X127885674Y-82688256D01*
X127900205Y-82550000D01*
X132094540Y-82550000D01*
X132095219Y-82556460D01*
X132113646Y-82731795D01*
X132113647Y-82731803D01*
X132114326Y-82738256D01*
X132116331Y-82744428D01*
X132116333Y-82744435D01*
X132154567Y-82862105D01*
X132172821Y-82918284D01*
X132176068Y-82923908D01*
X132176069Y-82923910D01*
X132238599Y-83032216D01*
X132267467Y-83082216D01*
X132271811Y-83087041D01*
X132271813Y-83087043D01*
X132352549Y-83176709D01*
X132394129Y-83222888D01*
X132547270Y-83334151D01*
X132720197Y-83411144D01*
X132905354Y-83450500D01*
X133088143Y-83450500D01*
X133094646Y-83450500D01*
X133279803Y-83411144D01*
X133452730Y-83334151D01*
X133605871Y-83222888D01*
X133732533Y-83082216D01*
X133827179Y-82918284D01*
X133885674Y-82738256D01*
X133905460Y-82550000D01*
X133885674Y-82361744D01*
X133827179Y-82181716D01*
X133767299Y-82078000D01*
X185944532Y-82078000D01*
X185945004Y-82083395D01*
X185949231Y-82131716D01*
X185964365Y-82304692D01*
X185965762Y-82309907D01*
X185965764Y-82309916D01*
X186021858Y-82519263D01*
X186021861Y-82519271D01*
X186023261Y-82524496D01*
X186119432Y-82730734D01*
X186249953Y-82917139D01*
X186410861Y-83078047D01*
X186597266Y-83208568D01*
X186803504Y-83304739D01*
X186808734Y-83306140D01*
X186808736Y-83306141D01*
X187004136Y-83358498D01*
X187023308Y-83363635D01*
X187250000Y-83383468D01*
X187476692Y-83363635D01*
X187696496Y-83304739D01*
X187902734Y-83208568D01*
X188089139Y-83078047D01*
X188250047Y-82917139D01*
X188380568Y-82730734D01*
X188476739Y-82524496D01*
X188535635Y-82304692D01*
X188555468Y-82078000D01*
X192444532Y-82078000D01*
X192445004Y-82083395D01*
X192449231Y-82131716D01*
X192464365Y-82304692D01*
X192465762Y-82309907D01*
X192465764Y-82309916D01*
X192521858Y-82519263D01*
X192521861Y-82519271D01*
X192523261Y-82524496D01*
X192619432Y-82730734D01*
X192749953Y-82917139D01*
X192910861Y-83078047D01*
X193097266Y-83208568D01*
X193303504Y-83304739D01*
X193308734Y-83306140D01*
X193308736Y-83306141D01*
X193504136Y-83358498D01*
X193523308Y-83363635D01*
X193750000Y-83383468D01*
X193976692Y-83363635D01*
X194196496Y-83304739D01*
X194402734Y-83208568D01*
X194589139Y-83078047D01*
X194750047Y-82917139D01*
X194880568Y-82730734D01*
X194976739Y-82524496D01*
X195035635Y-82304692D01*
X195055468Y-82078000D01*
X195035635Y-81851308D01*
X195013760Y-81769669D01*
X194978141Y-81636736D01*
X194978140Y-81636734D01*
X194976739Y-81631504D01*
X194880568Y-81425266D01*
X194750047Y-81238861D01*
X194589139Y-81077953D01*
X194402734Y-80947432D01*
X194196496Y-80851261D01*
X194191271Y-80849861D01*
X194191263Y-80849858D01*
X193981916Y-80793764D01*
X193981907Y-80793762D01*
X193976692Y-80792365D01*
X193971304Y-80791893D01*
X193971301Y-80791893D01*
X193755395Y-80773004D01*
X193750000Y-80772532D01*
X193744605Y-80773004D01*
X193528698Y-80791893D01*
X193528693Y-80791893D01*
X193523308Y-80792365D01*
X193518094Y-80793762D01*
X193518083Y-80793764D01*
X193308736Y-80849858D01*
X193308724Y-80849862D01*
X193303504Y-80851261D01*
X193298599Y-80853547D01*
X193298594Y-80853550D01*
X193102176Y-80945142D01*
X193102172Y-80945144D01*
X193097266Y-80947432D01*
X193092833Y-80950535D01*
X193092826Y-80950540D01*
X192915296Y-81074847D01*
X192915291Y-81074850D01*
X192910861Y-81077953D01*
X192907037Y-81081776D01*
X192907031Y-81081782D01*
X192753782Y-81235031D01*
X192753776Y-81235037D01*
X192749953Y-81238861D01*
X192746850Y-81243291D01*
X192746847Y-81243296D01*
X192622540Y-81420826D01*
X192622535Y-81420833D01*
X192619432Y-81425266D01*
X192617144Y-81430172D01*
X192617142Y-81430176D01*
X192525550Y-81626594D01*
X192525547Y-81626599D01*
X192523261Y-81631504D01*
X192521862Y-81636724D01*
X192521858Y-81636736D01*
X192465764Y-81846083D01*
X192465762Y-81846094D01*
X192464365Y-81851308D01*
X192463893Y-81856693D01*
X192463893Y-81856698D01*
X192449800Y-82017784D01*
X192444532Y-82078000D01*
X188555468Y-82078000D01*
X188535635Y-81851308D01*
X188513760Y-81769669D01*
X188478141Y-81636736D01*
X188478140Y-81636734D01*
X188476739Y-81631504D01*
X188380568Y-81425266D01*
X188250047Y-81238861D01*
X188089139Y-81077953D01*
X187902734Y-80947432D01*
X187696496Y-80851261D01*
X187691271Y-80849861D01*
X187691263Y-80849858D01*
X187481916Y-80793764D01*
X187481907Y-80793762D01*
X187476692Y-80792365D01*
X187471304Y-80791893D01*
X187471301Y-80791893D01*
X187255395Y-80773004D01*
X187250000Y-80772532D01*
X187244605Y-80773004D01*
X187028698Y-80791893D01*
X187028693Y-80791893D01*
X187023308Y-80792365D01*
X187018094Y-80793762D01*
X187018083Y-80793764D01*
X186808736Y-80849858D01*
X186808724Y-80849862D01*
X186803504Y-80851261D01*
X186798599Y-80853547D01*
X186798594Y-80853550D01*
X186602176Y-80945142D01*
X186602172Y-80945144D01*
X186597266Y-80947432D01*
X186592833Y-80950535D01*
X186592826Y-80950540D01*
X186415296Y-81074847D01*
X186415291Y-81074850D01*
X186410861Y-81077953D01*
X186407037Y-81081776D01*
X186407031Y-81081782D01*
X186253782Y-81235031D01*
X186253776Y-81235037D01*
X186249953Y-81238861D01*
X186246850Y-81243291D01*
X186246847Y-81243296D01*
X186122540Y-81420826D01*
X186122535Y-81420833D01*
X186119432Y-81425266D01*
X186117144Y-81430172D01*
X186117142Y-81430176D01*
X186025550Y-81626594D01*
X186025547Y-81626599D01*
X186023261Y-81631504D01*
X186021862Y-81636724D01*
X186021858Y-81636736D01*
X185965764Y-81846083D01*
X185965762Y-81846094D01*
X185964365Y-81851308D01*
X185963893Y-81856693D01*
X185963893Y-81856698D01*
X185949800Y-82017784D01*
X185944532Y-82078000D01*
X133767299Y-82078000D01*
X133732533Y-82017784D01*
X133605871Y-81877112D01*
X133600613Y-81873292D01*
X133600611Y-81873290D01*
X133457988Y-81769669D01*
X133457987Y-81769668D01*
X133452730Y-81765849D01*
X133446792Y-81763205D01*
X133285745Y-81691501D01*
X133285740Y-81691499D01*
X133279803Y-81688856D01*
X133273444Y-81687504D01*
X133273440Y-81687503D01*
X133101008Y-81650852D01*
X133101005Y-81650851D01*
X133094646Y-81649500D01*
X132905354Y-81649500D01*
X132898995Y-81650851D01*
X132898991Y-81650852D01*
X132726559Y-81687503D01*
X132726552Y-81687505D01*
X132720197Y-81688856D01*
X132714262Y-81691498D01*
X132714254Y-81691501D01*
X132553207Y-81763205D01*
X132553202Y-81763207D01*
X132547270Y-81765849D01*
X132542016Y-81769665D01*
X132542011Y-81769669D01*
X132399388Y-81873290D01*
X132399381Y-81873295D01*
X132394129Y-81877112D01*
X132389784Y-81881937D01*
X132389779Y-81881942D01*
X132271813Y-82012956D01*
X132271808Y-82012962D01*
X132267467Y-82017784D01*
X132264222Y-82023404D01*
X132264218Y-82023410D01*
X132176069Y-82176089D01*
X132176066Y-82176094D01*
X132172821Y-82181716D01*
X132170815Y-82187888D01*
X132170813Y-82187894D01*
X132116333Y-82355564D01*
X132116331Y-82355573D01*
X132114326Y-82361744D01*
X132113648Y-82368194D01*
X132113646Y-82368204D01*
X132096705Y-82529405D01*
X132094540Y-82550000D01*
X127900205Y-82550000D01*
X127905460Y-82500000D01*
X127885674Y-82311744D01*
X127827179Y-82131716D01*
X127732533Y-81967784D01*
X127605871Y-81827112D01*
X127600613Y-81823292D01*
X127600611Y-81823290D01*
X127457988Y-81719669D01*
X127457987Y-81719668D01*
X127452730Y-81715849D01*
X127446792Y-81713205D01*
X127285745Y-81641501D01*
X127285740Y-81641499D01*
X127279803Y-81638856D01*
X127273444Y-81637504D01*
X127273440Y-81637503D01*
X127101008Y-81600852D01*
X127101005Y-81600851D01*
X127094646Y-81599500D01*
X126905354Y-81599500D01*
X126898995Y-81600851D01*
X126898991Y-81600852D01*
X126726559Y-81637503D01*
X126726552Y-81637505D01*
X126720197Y-81638856D01*
X126714262Y-81641498D01*
X126714254Y-81641501D01*
X126553207Y-81713205D01*
X126553202Y-81713207D01*
X126547270Y-81715849D01*
X126542016Y-81719665D01*
X126542011Y-81719669D01*
X126399388Y-81823290D01*
X126399381Y-81823295D01*
X126394129Y-81827112D01*
X126389784Y-81831937D01*
X126389779Y-81831942D01*
X126271813Y-81962956D01*
X126271808Y-81962962D01*
X126267467Y-81967784D01*
X126264222Y-81973404D01*
X126264218Y-81973410D01*
X126176069Y-82126089D01*
X126176066Y-82126094D01*
X126172821Y-82131716D01*
X126170815Y-82137888D01*
X126170813Y-82137894D01*
X126116333Y-82305564D01*
X126116331Y-82305573D01*
X126114326Y-82311744D01*
X126113648Y-82318194D01*
X126113646Y-82318204D01*
X126095962Y-82486464D01*
X126094540Y-82500000D01*
X115300500Y-82500000D01*
X115300500Y-80028600D01*
X122538540Y-80028600D01*
X122539219Y-80035060D01*
X122557646Y-80210395D01*
X122557647Y-80210403D01*
X122558326Y-80216856D01*
X122560331Y-80223028D01*
X122560333Y-80223035D01*
X122614813Y-80390705D01*
X122616821Y-80396884D01*
X122711467Y-80560816D01*
X122838129Y-80701488D01*
X122991270Y-80812751D01*
X123164197Y-80889744D01*
X123349354Y-80929100D01*
X123532143Y-80929100D01*
X123538646Y-80929100D01*
X123723803Y-80889744D01*
X123896730Y-80812751D01*
X124049871Y-80701488D01*
X124176533Y-80560816D01*
X124271179Y-80396884D01*
X124329674Y-80216856D01*
X124349460Y-80028600D01*
X124329674Y-79840344D01*
X124271179Y-79660316D01*
X124176533Y-79496384D01*
X124049871Y-79355712D01*
X124044613Y-79351892D01*
X124044611Y-79351890D01*
X123901988Y-79248269D01*
X123901987Y-79248268D01*
X123896730Y-79244449D01*
X123890792Y-79241805D01*
X123729745Y-79170101D01*
X123729740Y-79170099D01*
X123723803Y-79167456D01*
X123717444Y-79166104D01*
X123717440Y-79166103D01*
X123545008Y-79129452D01*
X123545005Y-79129451D01*
X123538646Y-79128100D01*
X123349354Y-79128100D01*
X123342995Y-79129451D01*
X123342991Y-79129452D01*
X123170559Y-79166103D01*
X123170552Y-79166105D01*
X123164197Y-79167456D01*
X123158262Y-79170098D01*
X123158254Y-79170101D01*
X122997207Y-79241805D01*
X122997202Y-79241807D01*
X122991270Y-79244449D01*
X122986016Y-79248265D01*
X122986011Y-79248269D01*
X122843388Y-79351890D01*
X122843381Y-79351895D01*
X122838129Y-79355712D01*
X122833784Y-79360537D01*
X122833779Y-79360542D01*
X122715813Y-79491556D01*
X122715808Y-79491562D01*
X122711467Y-79496384D01*
X122708222Y-79502004D01*
X122708218Y-79502010D01*
X122620069Y-79654689D01*
X122620066Y-79654694D01*
X122616821Y-79660316D01*
X122614815Y-79666488D01*
X122614813Y-79666494D01*
X122560333Y-79834164D01*
X122560331Y-79834173D01*
X122558326Y-79840344D01*
X122557648Y-79846794D01*
X122557646Y-79846804D01*
X122539962Y-80015064D01*
X122538540Y-80028600D01*
X115300500Y-80028600D01*
X115300500Y-75438000D01*
X163540532Y-75438000D01*
X163560365Y-75664692D01*
X163561762Y-75669907D01*
X163561764Y-75669916D01*
X163617858Y-75879263D01*
X163617861Y-75879271D01*
X163619261Y-75884496D01*
X163715432Y-76090734D01*
X163845953Y-76277139D01*
X164006861Y-76438047D01*
X164193266Y-76568568D01*
X164399504Y-76664739D01*
X164619308Y-76723635D01*
X164846000Y-76743468D01*
X165072692Y-76723635D01*
X165292496Y-76664739D01*
X165498734Y-76568568D01*
X165685139Y-76438047D01*
X165846047Y-76277139D01*
X165976568Y-76090734D01*
X166003618Y-76032724D01*
X166049375Y-75980549D01*
X166116000Y-75961130D01*
X166182625Y-75980549D01*
X166228381Y-76032724D01*
X166255432Y-76090734D01*
X166385953Y-76277139D01*
X166546861Y-76438047D01*
X166733266Y-76568568D01*
X166939504Y-76664739D01*
X167159308Y-76723635D01*
X167386000Y-76743468D01*
X167612692Y-76723635D01*
X167832496Y-76664739D01*
X168038734Y-76568568D01*
X168225139Y-76438047D01*
X168386047Y-76277139D01*
X168516568Y-76090734D01*
X168543618Y-76032724D01*
X168589375Y-75980549D01*
X168656000Y-75961130D01*
X168722625Y-75980549D01*
X168768381Y-76032724D01*
X168795432Y-76090734D01*
X168925953Y-76277139D01*
X169086861Y-76438047D01*
X169273266Y-76568568D01*
X169479504Y-76664739D01*
X169699308Y-76723635D01*
X169926000Y-76743468D01*
X170152692Y-76723635D01*
X170372496Y-76664739D01*
X170578734Y-76568568D01*
X170765139Y-76438047D01*
X170926047Y-76277139D01*
X171056568Y-76090734D01*
X171083618Y-76032724D01*
X171129375Y-75980549D01*
X171196000Y-75961130D01*
X171262625Y-75980549D01*
X171308381Y-76032724D01*
X171335432Y-76090734D01*
X171465953Y-76277139D01*
X171626861Y-76438047D01*
X171813266Y-76568568D01*
X172019504Y-76664739D01*
X172239308Y-76723635D01*
X172466000Y-76743468D01*
X172692692Y-76723635D01*
X172912496Y-76664739D01*
X173118734Y-76568568D01*
X173305139Y-76438047D01*
X173466047Y-76277139D01*
X173596568Y-76090734D01*
X173692739Y-75884496D01*
X173751635Y-75664692D01*
X173771468Y-75438000D01*
X173751635Y-75211308D01*
X173736000Y-75152957D01*
X173694141Y-74996736D01*
X173694140Y-74996734D01*
X173692739Y-74991504D01*
X173596568Y-74785266D01*
X173466047Y-74598861D01*
X173417186Y-74550000D01*
X184833940Y-74550000D01*
X184834619Y-74556460D01*
X184853046Y-74731795D01*
X184853047Y-74731803D01*
X184853726Y-74738256D01*
X184855731Y-74744428D01*
X184855733Y-74744435D01*
X184910213Y-74912105D01*
X184912221Y-74918284D01*
X184915468Y-74923908D01*
X184915469Y-74923910D01*
X184954494Y-74991504D01*
X185006867Y-75082216D01*
X185011211Y-75087041D01*
X185011213Y-75087043D01*
X185118398Y-75206083D01*
X185133529Y-75222888D01*
X185286670Y-75334151D01*
X185459597Y-75411144D01*
X185644754Y-75450500D01*
X185827543Y-75450500D01*
X185834046Y-75450500D01*
X186019203Y-75411144D01*
X186192130Y-75334151D01*
X186345271Y-75222888D01*
X186471933Y-75082216D01*
X186566579Y-74918284D01*
X186625074Y-74738256D01*
X186644860Y-74550000D01*
X186625074Y-74361744D01*
X186566579Y-74181716D01*
X186471933Y-74017784D01*
X186345271Y-73877112D01*
X186340013Y-73873292D01*
X186340011Y-73873290D01*
X186197388Y-73769669D01*
X186197387Y-73769668D01*
X186192130Y-73765849D01*
X186186192Y-73763205D01*
X186025145Y-73691501D01*
X186025140Y-73691499D01*
X186019203Y-73688856D01*
X186012844Y-73687504D01*
X186012840Y-73687503D01*
X185840408Y-73650852D01*
X185840405Y-73650851D01*
X185834046Y-73649500D01*
X185644754Y-73649500D01*
X185638395Y-73650851D01*
X185638391Y-73650852D01*
X185465959Y-73687503D01*
X185465952Y-73687505D01*
X185459597Y-73688856D01*
X185453662Y-73691498D01*
X185453654Y-73691501D01*
X185292607Y-73763205D01*
X185292602Y-73763207D01*
X185286670Y-73765849D01*
X185281416Y-73769665D01*
X185281411Y-73769669D01*
X185138788Y-73873290D01*
X185138781Y-73873295D01*
X185133529Y-73877112D01*
X185129184Y-73881937D01*
X185129179Y-73881942D01*
X185011213Y-74012956D01*
X185011208Y-74012962D01*
X185006867Y-74017784D01*
X185003622Y-74023404D01*
X185003618Y-74023410D01*
X184915469Y-74176089D01*
X184915466Y-74176094D01*
X184912221Y-74181716D01*
X184910215Y-74187888D01*
X184910213Y-74187894D01*
X184855733Y-74355564D01*
X184855731Y-74355573D01*
X184853726Y-74361744D01*
X184853048Y-74368194D01*
X184853046Y-74368204D01*
X184835809Y-74532216D01*
X184833940Y-74550000D01*
X173417186Y-74550000D01*
X173305139Y-74437953D01*
X173213675Y-74373910D01*
X173123173Y-74310540D01*
X173123171Y-74310539D01*
X173118734Y-74307432D01*
X172912496Y-74211261D01*
X172907271Y-74209861D01*
X172907263Y-74209858D01*
X172697916Y-74153764D01*
X172697907Y-74153762D01*
X172692692Y-74152365D01*
X172687304Y-74151893D01*
X172687301Y-74151893D01*
X172471395Y-74133004D01*
X172466000Y-74132532D01*
X172460605Y-74133004D01*
X172244698Y-74151893D01*
X172244693Y-74151893D01*
X172239308Y-74152365D01*
X172234094Y-74153762D01*
X172234083Y-74153764D01*
X172024736Y-74209858D01*
X172024724Y-74209862D01*
X172019504Y-74211261D01*
X172014599Y-74213547D01*
X172014594Y-74213550D01*
X171818176Y-74305142D01*
X171818172Y-74305144D01*
X171813266Y-74307432D01*
X171808833Y-74310535D01*
X171808826Y-74310540D01*
X171631296Y-74434847D01*
X171631291Y-74434850D01*
X171626861Y-74437953D01*
X171623037Y-74441776D01*
X171623031Y-74441782D01*
X171469782Y-74595031D01*
X171469776Y-74595037D01*
X171465953Y-74598861D01*
X171462850Y-74603291D01*
X171462847Y-74603296D01*
X171338540Y-74780826D01*
X171338535Y-74780833D01*
X171335432Y-74785266D01*
X171333148Y-74790163D01*
X171333141Y-74790176D01*
X171308382Y-74843274D01*
X171262625Y-74895450D01*
X171196000Y-74914869D01*
X171129375Y-74895450D01*
X171083618Y-74843274D01*
X171058858Y-74790176D01*
X171058855Y-74790172D01*
X171056568Y-74785266D01*
X170926047Y-74598861D01*
X170765139Y-74437953D01*
X170673675Y-74373910D01*
X170583173Y-74310540D01*
X170583171Y-74310539D01*
X170578734Y-74307432D01*
X170372496Y-74211261D01*
X170367271Y-74209861D01*
X170367263Y-74209858D01*
X170157916Y-74153764D01*
X170157907Y-74153762D01*
X170152692Y-74152365D01*
X170147304Y-74151893D01*
X170147301Y-74151893D01*
X169931395Y-74133004D01*
X169926000Y-74132532D01*
X169920605Y-74133004D01*
X169704698Y-74151893D01*
X169704693Y-74151893D01*
X169699308Y-74152365D01*
X169694094Y-74153762D01*
X169694083Y-74153764D01*
X169484736Y-74209858D01*
X169484724Y-74209862D01*
X169479504Y-74211261D01*
X169474599Y-74213547D01*
X169474594Y-74213550D01*
X169278176Y-74305142D01*
X169278172Y-74305144D01*
X169273266Y-74307432D01*
X169268833Y-74310535D01*
X169268826Y-74310540D01*
X169091296Y-74434847D01*
X169091291Y-74434850D01*
X169086861Y-74437953D01*
X169083037Y-74441776D01*
X169083031Y-74441782D01*
X168929782Y-74595031D01*
X168929776Y-74595037D01*
X168925953Y-74598861D01*
X168922850Y-74603291D01*
X168922847Y-74603296D01*
X168798540Y-74780826D01*
X168798535Y-74780833D01*
X168795432Y-74785266D01*
X168793148Y-74790163D01*
X168793141Y-74790176D01*
X168768382Y-74843274D01*
X168722625Y-74895450D01*
X168656000Y-74914869D01*
X168589375Y-74895450D01*
X168543618Y-74843274D01*
X168518858Y-74790176D01*
X168518855Y-74790172D01*
X168516568Y-74785266D01*
X168386047Y-74598861D01*
X168225139Y-74437953D01*
X168133675Y-74373910D01*
X168043173Y-74310540D01*
X168043171Y-74310539D01*
X168038734Y-74307432D01*
X167832496Y-74211261D01*
X167827271Y-74209861D01*
X167827263Y-74209858D01*
X167617916Y-74153764D01*
X167617907Y-74153762D01*
X167612692Y-74152365D01*
X167607304Y-74151893D01*
X167607301Y-74151893D01*
X167391395Y-74133004D01*
X167386000Y-74132532D01*
X167380605Y-74133004D01*
X167164698Y-74151893D01*
X167164693Y-74151893D01*
X167159308Y-74152365D01*
X167154094Y-74153762D01*
X167154083Y-74153764D01*
X166944736Y-74209858D01*
X166944724Y-74209862D01*
X166939504Y-74211261D01*
X166934599Y-74213547D01*
X166934594Y-74213550D01*
X166738176Y-74305142D01*
X166738172Y-74305144D01*
X166733266Y-74307432D01*
X166728833Y-74310535D01*
X166728826Y-74310540D01*
X166551296Y-74434847D01*
X166551291Y-74434850D01*
X166546861Y-74437953D01*
X166543037Y-74441776D01*
X166543031Y-74441782D01*
X166389782Y-74595031D01*
X166389776Y-74595037D01*
X166385953Y-74598861D01*
X166382850Y-74603291D01*
X166382847Y-74603296D01*
X166258540Y-74780826D01*
X166258535Y-74780833D01*
X166255432Y-74785266D01*
X166253148Y-74790163D01*
X166253141Y-74790176D01*
X166228382Y-74843274D01*
X166182625Y-74895450D01*
X166116000Y-74914869D01*
X166049375Y-74895450D01*
X166003618Y-74843274D01*
X165978858Y-74790176D01*
X165978855Y-74790172D01*
X165976568Y-74785266D01*
X165846047Y-74598861D01*
X165685139Y-74437953D01*
X165593675Y-74373910D01*
X165503173Y-74310540D01*
X165503171Y-74310539D01*
X165498734Y-74307432D01*
X165292496Y-74211261D01*
X165287271Y-74209861D01*
X165287263Y-74209858D01*
X165077916Y-74153764D01*
X165077907Y-74153762D01*
X165072692Y-74152365D01*
X165067304Y-74151893D01*
X165067301Y-74151893D01*
X164851395Y-74133004D01*
X164846000Y-74132532D01*
X164840605Y-74133004D01*
X164624698Y-74151893D01*
X164624693Y-74151893D01*
X164619308Y-74152365D01*
X164614094Y-74153762D01*
X164614083Y-74153764D01*
X164404736Y-74209858D01*
X164404724Y-74209862D01*
X164399504Y-74211261D01*
X164394599Y-74213547D01*
X164394594Y-74213550D01*
X164198176Y-74305142D01*
X164198172Y-74305144D01*
X164193266Y-74307432D01*
X164188833Y-74310535D01*
X164188826Y-74310540D01*
X164011296Y-74434847D01*
X164011291Y-74434850D01*
X164006861Y-74437953D01*
X164003037Y-74441776D01*
X164003031Y-74441782D01*
X163849782Y-74595031D01*
X163849776Y-74595037D01*
X163845953Y-74598861D01*
X163842850Y-74603291D01*
X163842847Y-74603296D01*
X163718540Y-74780826D01*
X163718535Y-74780833D01*
X163715432Y-74785266D01*
X163713144Y-74790172D01*
X163713142Y-74790176D01*
X163621550Y-74986594D01*
X163621547Y-74986599D01*
X163619261Y-74991504D01*
X163617862Y-74996724D01*
X163617858Y-74996736D01*
X163561764Y-75206083D01*
X163561762Y-75206094D01*
X163560365Y-75211308D01*
X163559893Y-75216693D01*
X163559893Y-75216698D01*
X163549386Y-75336794D01*
X163540532Y-75438000D01*
X115300500Y-75438000D01*
X115300500Y-74000000D01*
X126094540Y-74000000D01*
X126095219Y-74006460D01*
X126113646Y-74181795D01*
X126113647Y-74181803D01*
X126114326Y-74188256D01*
X126116331Y-74194428D01*
X126116333Y-74194435D01*
X126168688Y-74355564D01*
X126172821Y-74368284D01*
X126267467Y-74532216D01*
X126394129Y-74672888D01*
X126547270Y-74784151D01*
X126720197Y-74861144D01*
X126905354Y-74900500D01*
X127088143Y-74900500D01*
X127094646Y-74900500D01*
X127279803Y-74861144D01*
X127452730Y-74784151D01*
X127605871Y-74672888D01*
X127732533Y-74532216D01*
X127827179Y-74368284D01*
X127885674Y-74188256D01*
X127905460Y-74000000D01*
X127885674Y-73811744D01*
X127827179Y-73631716D01*
X127732533Y-73467784D01*
X127605871Y-73327112D01*
X127600613Y-73323292D01*
X127600611Y-73323290D01*
X127457988Y-73219669D01*
X127457987Y-73219668D01*
X127452730Y-73215849D01*
X127446792Y-73213205D01*
X127285745Y-73141501D01*
X127285740Y-73141499D01*
X127279803Y-73138856D01*
X127273444Y-73137504D01*
X127273440Y-73137503D01*
X127101008Y-73100852D01*
X127101005Y-73100851D01*
X127094646Y-73099500D01*
X126905354Y-73099500D01*
X126898995Y-73100851D01*
X126898991Y-73100852D01*
X126726559Y-73137503D01*
X126726552Y-73137505D01*
X126720197Y-73138856D01*
X126714262Y-73141498D01*
X126714254Y-73141501D01*
X126553207Y-73213205D01*
X126553202Y-73213207D01*
X126547270Y-73215849D01*
X126542016Y-73219665D01*
X126542011Y-73219669D01*
X126399388Y-73323290D01*
X126399381Y-73323295D01*
X126394129Y-73327112D01*
X126389784Y-73331937D01*
X126389779Y-73331942D01*
X126271813Y-73462956D01*
X126271808Y-73462962D01*
X126267467Y-73467784D01*
X126264222Y-73473404D01*
X126264218Y-73473410D01*
X126176069Y-73626089D01*
X126176066Y-73626094D01*
X126172821Y-73631716D01*
X126170815Y-73637888D01*
X126170813Y-73637894D01*
X126116333Y-73805564D01*
X126116331Y-73805573D01*
X126114326Y-73811744D01*
X126113648Y-73818194D01*
X126113646Y-73818204D01*
X126095962Y-73986464D01*
X126094540Y-74000000D01*
X115300500Y-74000000D01*
X115300500Y-71900000D01*
X127494540Y-71900000D01*
X127495219Y-71906460D01*
X127513646Y-72081795D01*
X127513647Y-72081803D01*
X127514326Y-72088256D01*
X127516331Y-72094428D01*
X127516333Y-72094435D01*
X127564477Y-72242605D01*
X127572821Y-72268284D01*
X127576068Y-72273908D01*
X127576069Y-72273910D01*
X127658995Y-72417543D01*
X127667467Y-72432216D01*
X127671811Y-72437041D01*
X127671813Y-72437043D01*
X127789779Y-72568057D01*
X127794129Y-72572888D01*
X127947270Y-72684151D01*
X128120197Y-72761144D01*
X128305354Y-72800500D01*
X128488143Y-72800500D01*
X128494646Y-72800500D01*
X128679803Y-72761144D01*
X128852730Y-72684151D01*
X129005871Y-72572888D01*
X129132533Y-72432216D01*
X129227179Y-72268284D01*
X129285674Y-72088256D01*
X129305460Y-71900000D01*
X129303411Y-71880500D01*
X197600740Y-71880500D01*
X197601419Y-71886960D01*
X197619846Y-72062295D01*
X197619847Y-72062303D01*
X197620526Y-72068756D01*
X197622531Y-72074928D01*
X197622533Y-72074935D01*
X197677013Y-72242605D01*
X197679021Y-72248784D01*
X197773667Y-72412716D01*
X197900329Y-72553388D01*
X197905587Y-72557208D01*
X197905588Y-72557209D01*
X197932428Y-72576709D01*
X198053470Y-72664651D01*
X198226397Y-72741644D01*
X198411554Y-72781000D01*
X198594343Y-72781000D01*
X198600846Y-72781000D01*
X198786003Y-72741644D01*
X198958930Y-72664651D01*
X199112071Y-72553388D01*
X199238733Y-72412716D01*
X199333379Y-72248784D01*
X199391874Y-72068756D01*
X199411660Y-71880500D01*
X199394602Y-71718204D01*
X199392553Y-71698704D01*
X199392552Y-71698703D01*
X199391874Y-71692244D01*
X199333379Y-71512216D01*
X199238733Y-71348284D01*
X199112071Y-71207612D01*
X199106813Y-71203792D01*
X199106811Y-71203790D01*
X198964188Y-71100169D01*
X198964187Y-71100168D01*
X198958930Y-71096349D01*
X198952992Y-71093705D01*
X198791945Y-71022001D01*
X198791940Y-71021999D01*
X198786003Y-71019356D01*
X198779644Y-71018004D01*
X198779640Y-71018003D01*
X198607208Y-70981352D01*
X198607205Y-70981351D01*
X198600846Y-70980000D01*
X198411554Y-70980000D01*
X198405195Y-70981351D01*
X198405191Y-70981352D01*
X198232759Y-71018003D01*
X198232752Y-71018005D01*
X198226397Y-71019356D01*
X198220462Y-71021998D01*
X198220454Y-71022001D01*
X198059407Y-71093705D01*
X198059402Y-71093707D01*
X198053470Y-71096349D01*
X198048216Y-71100165D01*
X198048211Y-71100169D01*
X197905588Y-71203790D01*
X197905581Y-71203795D01*
X197900329Y-71207612D01*
X197895984Y-71212437D01*
X197895979Y-71212442D01*
X197778013Y-71343456D01*
X197778008Y-71343462D01*
X197773667Y-71348284D01*
X197770422Y-71353904D01*
X197770418Y-71353910D01*
X197682269Y-71506589D01*
X197682266Y-71506594D01*
X197679021Y-71512216D01*
X197677015Y-71518388D01*
X197677013Y-71518394D01*
X197622533Y-71686064D01*
X197622531Y-71686073D01*
X197620526Y-71692244D01*
X197619848Y-71698694D01*
X197619846Y-71698704D01*
X197602162Y-71866964D01*
X197600740Y-71880500D01*
X129303411Y-71880500D01*
X129285674Y-71711744D01*
X129227179Y-71531716D01*
X129132533Y-71367784D01*
X129005871Y-71227112D01*
X129000613Y-71223292D01*
X129000611Y-71223290D01*
X128857988Y-71119669D01*
X128857987Y-71119668D01*
X128852730Y-71115849D01*
X128808933Y-71096349D01*
X128685745Y-71041501D01*
X128685740Y-71041499D01*
X128679803Y-71038856D01*
X128673444Y-71037504D01*
X128673440Y-71037503D01*
X128501008Y-71000852D01*
X128501005Y-71000851D01*
X128494646Y-70999500D01*
X128305354Y-70999500D01*
X128298995Y-71000851D01*
X128298991Y-71000852D01*
X128126559Y-71037503D01*
X128126552Y-71037505D01*
X128120197Y-71038856D01*
X128114262Y-71041498D01*
X128114254Y-71041501D01*
X127953207Y-71113205D01*
X127953202Y-71113207D01*
X127947270Y-71115849D01*
X127942016Y-71119665D01*
X127942011Y-71119669D01*
X127799388Y-71223290D01*
X127799381Y-71223295D01*
X127794129Y-71227112D01*
X127789784Y-71231937D01*
X127789779Y-71231942D01*
X127671813Y-71362956D01*
X127671808Y-71362962D01*
X127667467Y-71367784D01*
X127664222Y-71373404D01*
X127664218Y-71373410D01*
X127576069Y-71526089D01*
X127576066Y-71526094D01*
X127572821Y-71531716D01*
X127570815Y-71537888D01*
X127570813Y-71537894D01*
X127516333Y-71705564D01*
X127516331Y-71705573D01*
X127514326Y-71711744D01*
X127513648Y-71718194D01*
X127513646Y-71718204D01*
X127497268Y-71874040D01*
X127494540Y-71900000D01*
X115300500Y-71900000D01*
X115300500Y-69900000D01*
X171594540Y-69900000D01*
X171595219Y-69906460D01*
X171613646Y-70081795D01*
X171613647Y-70081803D01*
X171614326Y-70088256D01*
X171616331Y-70094428D01*
X171616333Y-70094435D01*
X171670813Y-70262105D01*
X171672821Y-70268284D01*
X171767467Y-70432216D01*
X171894129Y-70572888D01*
X172047270Y-70684151D01*
X172220197Y-70761144D01*
X172405354Y-70800500D01*
X172588143Y-70800500D01*
X172594646Y-70800500D01*
X172779803Y-70761144D01*
X172952730Y-70684151D01*
X173105871Y-70572888D01*
X173232533Y-70432216D01*
X173327179Y-70268284D01*
X173385674Y-70088256D01*
X173405460Y-69900000D01*
X173385674Y-69711744D01*
X173327179Y-69531716D01*
X173232533Y-69367784D01*
X173105871Y-69227112D01*
X173100613Y-69223292D01*
X173100611Y-69223290D01*
X172957988Y-69119669D01*
X172957987Y-69119668D01*
X172952730Y-69115849D01*
X172946792Y-69113205D01*
X172785745Y-69041501D01*
X172785740Y-69041499D01*
X172779803Y-69038856D01*
X172773444Y-69037504D01*
X172773440Y-69037503D01*
X172601008Y-69000852D01*
X172601005Y-69000851D01*
X172594646Y-68999500D01*
X172405354Y-68999500D01*
X172398995Y-69000851D01*
X172398991Y-69000852D01*
X172226559Y-69037503D01*
X172226552Y-69037505D01*
X172220197Y-69038856D01*
X172214262Y-69041498D01*
X172214254Y-69041501D01*
X172053207Y-69113205D01*
X172053202Y-69113207D01*
X172047270Y-69115849D01*
X172042016Y-69119665D01*
X172042011Y-69119669D01*
X171899388Y-69223290D01*
X171899381Y-69223295D01*
X171894129Y-69227112D01*
X171889784Y-69231937D01*
X171889779Y-69231942D01*
X171771813Y-69362956D01*
X171771808Y-69362962D01*
X171767467Y-69367784D01*
X171764222Y-69373404D01*
X171764218Y-69373410D01*
X171676069Y-69526089D01*
X171676066Y-69526094D01*
X171672821Y-69531716D01*
X171670815Y-69537888D01*
X171670813Y-69537894D01*
X171616333Y-69705564D01*
X171616331Y-69705573D01*
X171614326Y-69711744D01*
X171613648Y-69718194D01*
X171613646Y-69718204D01*
X171595962Y-69886464D01*
X171594540Y-69900000D01*
X115300500Y-69900000D01*
X115300500Y-67900000D01*
X165244540Y-67900000D01*
X165245219Y-67906460D01*
X165263646Y-68081795D01*
X165263647Y-68081803D01*
X165264326Y-68088256D01*
X165266331Y-68094428D01*
X165266333Y-68094435D01*
X165320813Y-68262105D01*
X165322821Y-68268284D01*
X165417467Y-68432216D01*
X165544129Y-68572888D01*
X165697270Y-68684151D01*
X165870197Y-68761144D01*
X166055354Y-68800500D01*
X166238143Y-68800500D01*
X166244646Y-68800500D01*
X166429803Y-68761144D01*
X166602730Y-68684151D01*
X166755871Y-68572888D01*
X166882533Y-68432216D01*
X166977179Y-68268284D01*
X167035674Y-68088256D01*
X167055460Y-67900000D01*
X167035674Y-67711744D01*
X166977179Y-67531716D01*
X166882533Y-67367784D01*
X166755871Y-67227112D01*
X166750613Y-67223292D01*
X166750611Y-67223290D01*
X166607988Y-67119669D01*
X166607987Y-67119668D01*
X166602730Y-67115849D01*
X166596792Y-67113205D01*
X166435745Y-67041501D01*
X166435740Y-67041499D01*
X166429803Y-67038856D01*
X166423444Y-67037504D01*
X166423440Y-67037503D01*
X166251008Y-67000852D01*
X166251005Y-67000851D01*
X166244646Y-66999500D01*
X166055354Y-66999500D01*
X166048995Y-67000851D01*
X166048991Y-67000852D01*
X165876559Y-67037503D01*
X165876552Y-67037505D01*
X165870197Y-67038856D01*
X165864262Y-67041498D01*
X165864254Y-67041501D01*
X165703207Y-67113205D01*
X165703202Y-67113207D01*
X165697270Y-67115849D01*
X165692016Y-67119665D01*
X165692011Y-67119669D01*
X165549388Y-67223290D01*
X165549381Y-67223295D01*
X165544129Y-67227112D01*
X165539784Y-67231937D01*
X165539779Y-67231942D01*
X165421813Y-67362956D01*
X165421808Y-67362962D01*
X165417467Y-67367784D01*
X165414222Y-67373404D01*
X165414218Y-67373410D01*
X165326069Y-67526089D01*
X165326066Y-67526094D01*
X165322821Y-67531716D01*
X165320815Y-67537888D01*
X165320813Y-67537894D01*
X165266333Y-67705564D01*
X165266331Y-67705573D01*
X165264326Y-67711744D01*
X165263648Y-67718194D01*
X165263646Y-67718204D01*
X165245962Y-67886464D01*
X165244540Y-67900000D01*
X115300500Y-67900000D01*
X115300500Y-66000000D01*
X127094540Y-66000000D01*
X127095219Y-66006460D01*
X127113646Y-66181795D01*
X127113647Y-66181803D01*
X127114326Y-66188256D01*
X127116331Y-66194428D01*
X127116333Y-66194435D01*
X127170813Y-66362105D01*
X127172821Y-66368284D01*
X127267467Y-66532216D01*
X127394129Y-66672888D01*
X127547270Y-66784151D01*
X127720197Y-66861144D01*
X127905354Y-66900500D01*
X128088143Y-66900500D01*
X128094646Y-66900500D01*
X128279803Y-66861144D01*
X128452730Y-66784151D01*
X128605871Y-66672888D01*
X128732533Y-66532216D01*
X128827179Y-66368284D01*
X128885674Y-66188256D01*
X128905460Y-66000000D01*
X150594540Y-66000000D01*
X150595219Y-66006460D01*
X150613646Y-66181795D01*
X150613647Y-66181803D01*
X150614326Y-66188256D01*
X150616331Y-66194428D01*
X150616333Y-66194435D01*
X150670813Y-66362105D01*
X150672821Y-66368284D01*
X150767467Y-66532216D01*
X150894129Y-66672888D01*
X151047270Y-66784151D01*
X151220197Y-66861144D01*
X151405354Y-66900500D01*
X151588143Y-66900500D01*
X151594646Y-66900500D01*
X151779803Y-66861144D01*
X151952730Y-66784151D01*
X152105871Y-66672888D01*
X152232533Y-66532216D01*
X152327179Y-66368284D01*
X152385674Y-66188256D01*
X152405460Y-66000000D01*
X152385674Y-65811744D01*
X152327179Y-65631716D01*
X152232533Y-65467784D01*
X152105871Y-65327112D01*
X152100613Y-65323292D01*
X152100611Y-65323290D01*
X151957988Y-65219669D01*
X151957987Y-65219668D01*
X151952730Y-65215849D01*
X151946792Y-65213205D01*
X151785745Y-65141501D01*
X151785740Y-65141499D01*
X151779803Y-65138856D01*
X151773444Y-65137504D01*
X151773440Y-65137503D01*
X151601008Y-65100852D01*
X151601005Y-65100851D01*
X151594646Y-65099500D01*
X151405354Y-65099500D01*
X151398995Y-65100851D01*
X151398991Y-65100852D01*
X151226559Y-65137503D01*
X151226552Y-65137505D01*
X151220197Y-65138856D01*
X151214262Y-65141498D01*
X151214254Y-65141501D01*
X151053207Y-65213205D01*
X151053202Y-65213207D01*
X151047270Y-65215849D01*
X151042016Y-65219665D01*
X151042011Y-65219669D01*
X150899388Y-65323290D01*
X150899381Y-65323295D01*
X150894129Y-65327112D01*
X150889784Y-65331937D01*
X150889779Y-65331942D01*
X150771813Y-65462956D01*
X150771808Y-65462962D01*
X150767467Y-65467784D01*
X150764222Y-65473404D01*
X150764218Y-65473410D01*
X150676069Y-65626089D01*
X150676066Y-65626094D01*
X150672821Y-65631716D01*
X150670815Y-65637888D01*
X150670813Y-65637894D01*
X150616333Y-65805564D01*
X150616331Y-65805573D01*
X150614326Y-65811744D01*
X150613648Y-65818194D01*
X150613646Y-65818204D01*
X150595962Y-65986464D01*
X150594540Y-66000000D01*
X128905460Y-66000000D01*
X128885674Y-65811744D01*
X128827179Y-65631716D01*
X128732533Y-65467784D01*
X128605871Y-65327112D01*
X128600613Y-65323292D01*
X128600611Y-65323290D01*
X128457988Y-65219669D01*
X128457987Y-65219668D01*
X128452730Y-65215849D01*
X128446792Y-65213205D01*
X128285745Y-65141501D01*
X128285740Y-65141499D01*
X128279803Y-65138856D01*
X128273444Y-65137504D01*
X128273440Y-65137503D01*
X128101008Y-65100852D01*
X128101005Y-65100851D01*
X128094646Y-65099500D01*
X127905354Y-65099500D01*
X127898995Y-65100851D01*
X127898991Y-65100852D01*
X127726559Y-65137503D01*
X127726552Y-65137505D01*
X127720197Y-65138856D01*
X127714262Y-65141498D01*
X127714254Y-65141501D01*
X127553207Y-65213205D01*
X127553202Y-65213207D01*
X127547270Y-65215849D01*
X127542016Y-65219665D01*
X127542011Y-65219669D01*
X127399388Y-65323290D01*
X127399381Y-65323295D01*
X127394129Y-65327112D01*
X127389784Y-65331937D01*
X127389779Y-65331942D01*
X127271813Y-65462956D01*
X127271808Y-65462962D01*
X127267467Y-65467784D01*
X127264222Y-65473404D01*
X127264218Y-65473410D01*
X127176069Y-65626089D01*
X127176066Y-65626094D01*
X127172821Y-65631716D01*
X127170815Y-65637888D01*
X127170813Y-65637894D01*
X127116333Y-65805564D01*
X127116331Y-65805573D01*
X127114326Y-65811744D01*
X127113648Y-65818194D01*
X127113646Y-65818204D01*
X127095962Y-65986464D01*
X127094540Y-66000000D01*
X115300500Y-66000000D01*
X115300500Y-63246000D01*
X160427341Y-63246000D01*
X160447937Y-63481408D01*
X160449336Y-63486630D01*
X160449337Y-63486634D01*
X160507694Y-63704430D01*
X160507697Y-63704438D01*
X160509097Y-63709663D01*
X160511385Y-63714570D01*
X160511386Y-63714572D01*
X160606678Y-63918927D01*
X160606681Y-63918933D01*
X160608965Y-63923830D01*
X160612064Y-63928257D01*
X160612066Y-63928259D01*
X160741399Y-64112966D01*
X160741402Y-64112970D01*
X160744505Y-64117401D01*
X160911599Y-64284495D01*
X161105170Y-64420035D01*
X161319337Y-64519903D01*
X161547592Y-64581063D01*
X161783000Y-64601659D01*
X162018408Y-64581063D01*
X162246663Y-64519903D01*
X162460830Y-64420035D01*
X162654401Y-64284495D01*
X162821495Y-64117401D01*
X162951424Y-63931842D01*
X162995743Y-63892976D01*
X163053000Y-63878965D01*
X163110257Y-63892976D01*
X163154575Y-63931842D01*
X163281395Y-64112961D01*
X163281401Y-64112968D01*
X163284505Y-64117401D01*
X163451599Y-64284495D01*
X163645170Y-64420035D01*
X163859337Y-64519903D01*
X164087592Y-64581063D01*
X164323000Y-64601659D01*
X164558408Y-64581063D01*
X164786663Y-64519903D01*
X165000830Y-64420035D01*
X165194401Y-64284495D01*
X165361495Y-64117401D01*
X165491424Y-63931842D01*
X165535743Y-63892976D01*
X165593000Y-63878965D01*
X165650257Y-63892976D01*
X165694575Y-63931842D01*
X165821395Y-64112961D01*
X165821401Y-64112968D01*
X165824505Y-64117401D01*
X165991599Y-64284495D01*
X166185170Y-64420035D01*
X166399337Y-64519903D01*
X166627592Y-64581063D01*
X166863000Y-64601659D01*
X167098408Y-64581063D01*
X167326663Y-64519903D01*
X167540830Y-64420035D01*
X167734401Y-64284495D01*
X167901495Y-64117401D01*
X168037035Y-63923830D01*
X168136903Y-63709663D01*
X168198063Y-63481408D01*
X168218659Y-63246000D01*
X168198063Y-63010592D01*
X168136903Y-62782337D01*
X168037035Y-62568171D01*
X167901495Y-62374599D01*
X167734401Y-62207505D01*
X167729970Y-62204402D01*
X167729966Y-62204399D01*
X167545259Y-62075066D01*
X167545257Y-62075064D01*
X167540830Y-62071965D01*
X167535933Y-62069681D01*
X167535927Y-62069678D01*
X167331572Y-61974386D01*
X167331570Y-61974385D01*
X167326663Y-61972097D01*
X167321438Y-61970697D01*
X167321430Y-61970694D01*
X167103634Y-61912337D01*
X167103630Y-61912336D01*
X167098408Y-61910937D01*
X167093020Y-61910465D01*
X167093017Y-61910465D01*
X166868395Y-61890813D01*
X166863000Y-61890341D01*
X166857605Y-61890813D01*
X166632982Y-61910465D01*
X166632977Y-61910465D01*
X166627592Y-61910937D01*
X166622371Y-61912335D01*
X166622365Y-61912337D01*
X166404569Y-61970694D01*
X166404557Y-61970698D01*
X166399337Y-61972097D01*
X166394432Y-61974383D01*
X166394427Y-61974386D01*
X166190081Y-62069675D01*
X166190077Y-62069677D01*
X166185171Y-62071965D01*
X166180738Y-62075068D01*
X166180731Y-62075073D01*
X165996034Y-62204399D01*
X165996029Y-62204402D01*
X165991599Y-62207505D01*
X165987775Y-62211328D01*
X165987769Y-62211334D01*
X165828334Y-62370769D01*
X165828328Y-62370775D01*
X165824505Y-62374599D01*
X165821402Y-62379029D01*
X165821399Y-62379034D01*
X165694575Y-62560159D01*
X165650257Y-62599025D01*
X165593000Y-62613036D01*
X165535743Y-62599025D01*
X165491425Y-62560159D01*
X165364600Y-62379034D01*
X165361495Y-62374599D01*
X165194401Y-62207505D01*
X165189970Y-62204402D01*
X165189966Y-62204399D01*
X165005259Y-62075066D01*
X165005257Y-62075064D01*
X165000830Y-62071965D01*
X164995933Y-62069681D01*
X164995927Y-62069678D01*
X164791572Y-61974386D01*
X164791570Y-61974385D01*
X164786663Y-61972097D01*
X164781438Y-61970697D01*
X164781430Y-61970694D01*
X164563634Y-61912337D01*
X164563630Y-61912336D01*
X164558408Y-61910937D01*
X164553020Y-61910465D01*
X164553017Y-61910465D01*
X164328395Y-61890813D01*
X164323000Y-61890341D01*
X164317605Y-61890813D01*
X164092982Y-61910465D01*
X164092977Y-61910465D01*
X164087592Y-61910937D01*
X164082371Y-61912335D01*
X164082365Y-61912337D01*
X163864569Y-61970694D01*
X163864557Y-61970698D01*
X163859337Y-61972097D01*
X163854432Y-61974383D01*
X163854427Y-61974386D01*
X163650081Y-62069675D01*
X163650077Y-62069677D01*
X163645171Y-62071965D01*
X163640738Y-62075068D01*
X163640731Y-62075073D01*
X163456034Y-62204399D01*
X163456029Y-62204402D01*
X163451599Y-62207505D01*
X163447775Y-62211328D01*
X163447769Y-62211334D01*
X163288334Y-62370769D01*
X163288328Y-62370775D01*
X163284505Y-62374599D01*
X163281402Y-62379029D01*
X163281399Y-62379034D01*
X163154575Y-62560159D01*
X163110257Y-62599025D01*
X163053000Y-62613036D01*
X162995743Y-62599025D01*
X162951425Y-62560159D01*
X162824600Y-62379034D01*
X162821495Y-62374599D01*
X162654401Y-62207505D01*
X162649970Y-62204402D01*
X162649966Y-62204399D01*
X162465259Y-62075066D01*
X162465257Y-62075064D01*
X162460830Y-62071965D01*
X162455933Y-62069681D01*
X162455927Y-62069678D01*
X162251572Y-61974386D01*
X162251570Y-61974385D01*
X162246663Y-61972097D01*
X162241438Y-61970697D01*
X162241430Y-61970694D01*
X162023634Y-61912337D01*
X162023630Y-61912336D01*
X162018408Y-61910937D01*
X162013020Y-61910465D01*
X162013017Y-61910465D01*
X161788395Y-61890813D01*
X161783000Y-61890341D01*
X161777605Y-61890813D01*
X161552982Y-61910465D01*
X161552977Y-61910465D01*
X161547592Y-61910937D01*
X161542371Y-61912335D01*
X161542365Y-61912337D01*
X161324569Y-61970694D01*
X161324557Y-61970698D01*
X161319337Y-61972097D01*
X161314432Y-61974383D01*
X161314427Y-61974386D01*
X161110081Y-62069675D01*
X161110077Y-62069677D01*
X161105171Y-62071965D01*
X161100738Y-62075068D01*
X161100731Y-62075073D01*
X160916034Y-62204399D01*
X160916029Y-62204402D01*
X160911599Y-62207505D01*
X160907775Y-62211328D01*
X160907769Y-62211334D01*
X160748334Y-62370769D01*
X160748328Y-62370775D01*
X160744505Y-62374599D01*
X160741402Y-62379029D01*
X160741399Y-62379034D01*
X160612073Y-62563731D01*
X160612068Y-62563738D01*
X160608965Y-62568171D01*
X160606677Y-62573077D01*
X160606675Y-62573081D01*
X160511386Y-62777427D01*
X160511383Y-62777432D01*
X160509097Y-62782337D01*
X160507698Y-62787557D01*
X160507694Y-62787569D01*
X160449337Y-63005365D01*
X160449335Y-63005371D01*
X160447937Y-63010592D01*
X160427341Y-63246000D01*
X115300500Y-63246000D01*
X115300500Y-55626000D01*
X161341357Y-55626000D01*
X161341781Y-55631117D01*
X161361467Y-55868701D01*
X161361468Y-55868709D01*
X161361892Y-55873821D01*
X161363149Y-55878788D01*
X161363151Y-55878795D01*
X161421678Y-56109910D01*
X161422937Y-56114881D01*
X161424997Y-56119577D01*
X161520766Y-56337910D01*
X161520769Y-56337916D01*
X161522827Y-56342607D01*
X161525627Y-56346893D01*
X161525631Y-56346900D01*
X161653675Y-56542885D01*
X161658836Y-56550785D01*
X161662310Y-56554559D01*
X161662311Y-56554560D01*
X161823784Y-56729967D01*
X161823787Y-56729970D01*
X161827256Y-56733738D01*
X162023491Y-56886474D01*
X162242190Y-57004828D01*
X162477386Y-57085571D01*
X162722665Y-57126500D01*
X162966201Y-57126500D01*
X162971335Y-57126500D01*
X163216614Y-57085571D01*
X163451810Y-57004828D01*
X163670509Y-56886474D01*
X163866744Y-56733738D01*
X164035164Y-56550785D01*
X164171173Y-56342607D01*
X164233444Y-56200642D01*
X164267644Y-56155171D01*
X164318551Y-56129761D01*
X164375449Y-56129761D01*
X164426356Y-56155171D01*
X164460556Y-56200643D01*
X164520766Y-56337910D01*
X164520769Y-56337916D01*
X164522827Y-56342607D01*
X164525627Y-56346893D01*
X164525631Y-56346900D01*
X164653675Y-56542885D01*
X164658836Y-56550785D01*
X164662310Y-56554559D01*
X164662311Y-56554560D01*
X164823784Y-56729967D01*
X164823787Y-56729970D01*
X164827256Y-56733738D01*
X165023491Y-56886474D01*
X165242190Y-57004828D01*
X165477386Y-57085571D01*
X165722665Y-57126500D01*
X165966201Y-57126500D01*
X165971335Y-57126500D01*
X166216614Y-57085571D01*
X166451810Y-57004828D01*
X166670509Y-56886474D01*
X166866744Y-56733738D01*
X167035164Y-56550785D01*
X167171173Y-56342607D01*
X167271063Y-56114881D01*
X167332108Y-55873821D01*
X167352643Y-55626000D01*
X167332108Y-55378179D01*
X167271063Y-55137119D01*
X167171173Y-54909393D01*
X167035164Y-54701215D01*
X166866744Y-54518262D01*
X166670509Y-54365526D01*
X166665997Y-54363084D01*
X166456316Y-54249610D01*
X166456310Y-54249607D01*
X166451810Y-54247172D01*
X166446969Y-54245510D01*
X166446962Y-54245507D01*
X166221465Y-54168094D01*
X166221461Y-54168093D01*
X166216614Y-54166429D01*
X166207768Y-54164952D01*
X165976398Y-54126344D01*
X165976387Y-54126343D01*
X165971335Y-54125500D01*
X165722665Y-54125500D01*
X165717613Y-54126343D01*
X165717601Y-54126344D01*
X165482443Y-54165585D01*
X165482441Y-54165585D01*
X165477386Y-54166429D01*
X165472541Y-54168092D01*
X165472534Y-54168094D01*
X165247037Y-54245507D01*
X165247026Y-54245511D01*
X165242190Y-54247172D01*
X165237693Y-54249605D01*
X165237683Y-54249610D01*
X165028002Y-54363084D01*
X165027995Y-54363088D01*
X165023491Y-54365526D01*
X165019448Y-54368672D01*
X165019440Y-54368678D01*
X164831304Y-54515111D01*
X164827256Y-54518262D01*
X164823793Y-54522023D01*
X164823784Y-54522032D01*
X164662311Y-54697439D01*
X164662305Y-54697446D01*
X164658836Y-54701215D01*
X164656031Y-54705506D01*
X164656028Y-54705512D01*
X164525631Y-54905099D01*
X164525624Y-54905111D01*
X164522827Y-54909393D01*
X164520772Y-54914077D01*
X164520766Y-54914089D01*
X164460556Y-55051356D01*
X164426356Y-55096828D01*
X164375449Y-55122239D01*
X164318551Y-55122239D01*
X164267644Y-55096828D01*
X164233444Y-55051356D01*
X164173233Y-54914089D01*
X164173232Y-54914087D01*
X164171173Y-54909393D01*
X164035164Y-54701215D01*
X163866744Y-54518262D01*
X163670509Y-54365526D01*
X163665997Y-54363084D01*
X163456316Y-54249610D01*
X163456310Y-54249607D01*
X163451810Y-54247172D01*
X163446969Y-54245510D01*
X163446962Y-54245507D01*
X163221465Y-54168094D01*
X163221461Y-54168093D01*
X163216614Y-54166429D01*
X163207768Y-54164952D01*
X162976398Y-54126344D01*
X162976387Y-54126343D01*
X162971335Y-54125500D01*
X162722665Y-54125500D01*
X162717613Y-54126343D01*
X162717601Y-54126344D01*
X162482443Y-54165585D01*
X162482441Y-54165585D01*
X162477386Y-54166429D01*
X162472541Y-54168092D01*
X162472534Y-54168094D01*
X162247037Y-54245507D01*
X162247026Y-54245511D01*
X162242190Y-54247172D01*
X162237693Y-54249605D01*
X162237683Y-54249610D01*
X162028002Y-54363084D01*
X162027995Y-54363088D01*
X162023491Y-54365526D01*
X162019448Y-54368672D01*
X162019440Y-54368678D01*
X161831304Y-54515111D01*
X161827256Y-54518262D01*
X161823793Y-54522023D01*
X161823784Y-54522032D01*
X161662311Y-54697439D01*
X161662305Y-54697446D01*
X161658836Y-54701215D01*
X161656031Y-54705506D01*
X161656028Y-54705512D01*
X161525631Y-54905099D01*
X161525624Y-54905111D01*
X161522827Y-54909393D01*
X161520772Y-54914077D01*
X161520766Y-54914089D01*
X161460556Y-55051356D01*
X161422937Y-55137119D01*
X161421679Y-55142084D01*
X161421678Y-55142089D01*
X161363151Y-55373204D01*
X161363149Y-55373213D01*
X161361892Y-55378179D01*
X161361468Y-55383288D01*
X161361467Y-55383298D01*
X161347000Y-55557899D01*
X161341357Y-55626000D01*
X115300500Y-55626000D01*
X115300500Y-50424500D01*
X115317113Y-50362500D01*
X115362500Y-50317113D01*
X115424500Y-50300500D01*
X218575500Y-50300500D01*
X218637500Y-50317113D01*
G37*
%TD.AperFunction*%
M02*
