%TF.GenerationSoftware,KiCad,Pcbnew,(7.0.0)*%
%TF.CreationDate,2025-03-31T13:01:06+03:00*%
%TF.ProjectId,test,74657374-2e6b-4696-9361-645f70636258,rev?*%
%TF.SameCoordinates,Original*%
%TF.FileFunction,Copper,L1,Top*%
%TF.FilePolarity,Positive*%
%FSLAX46Y46*%
G04 Gerber Fmt 4.6, Leading zero omitted, Abs format (unit mm)*
G04 Created by KiCad (PCBNEW (7.0.0)) date 2025-03-31 13:01:06*
%MOMM*%
%LPD*%
G01*
G04 APERTURE LIST*
%TA.AperFunction,ComponentPad*%
%ADD10C,1.800000*%
%TD*%
%TA.AperFunction,ComponentPad*%
%ADD11O,1.700000X1.700000*%
%TD*%
%TA.AperFunction,ComponentPad*%
%ADD12C,1.600000*%
%TD*%
%TA.AperFunction,SMDPad,CuDef*%
%ADD13R,2.000000X1.200000*%
%TD*%
%TA.AperFunction,SMDPad,CuDef*%
%ADD14R,1.100000X1.700000*%
%TD*%
%TA.AperFunction,ComponentPad*%
%ADD15C,2.000000*%
%TD*%
%TA.AperFunction,ViaPad*%
%ADD16C,0.800000*%
%TD*%
%TA.AperFunction,Conductor*%
%ADD17C,0.250000*%
%TD*%
G04 APERTURE END LIST*
D10*
%TO.P,RV1,1,1*%
%TO.N,Net-(J1-Pin_3)*%
X211000000Y-101000000D03*
%TO.P,RV1,2,2*%
%TO.N,Net-(U2-IO0)*%
X213500000Y-101000000D03*
%TO.P,RV1,3,3*%
%TO.N,Net-(J1-Pin_2)*%
X216000000Y-101000000D03*
%TD*%
D11*
%TO.P,J1,1,Pin_1*%
%TO.N,Net-(J1-Pin_1)*%
X166862999Y-63245999D03*
%TO.P,J1,2,Pin_2*%
%TO.N,Net-(J1-Pin_2)*%
X164322999Y-63245999D03*
%TO.P,J1,3,Pin_3*%
%TO.N,Net-(J1-Pin_3)*%
X161782999Y-63245999D03*
%TD*%
D12*
%TO.P,S1,1*%
%TO.N,Net-(U2-IO10)*%
X187250000Y-82078000D03*
%TO.P,S1,2*%
%TO.N,unconnected-(S1-Pad2)*%
X193750000Y-82078000D03*
%TO.P,S1,3*%
%TO.N,unconnected-(S1-Pad3)*%
X187250000Y-86578000D03*
%TO.P,S1,4*%
%TO.N,Net-(J1-Pin_3)*%
X193750000Y-86578000D03*
%TD*%
D13*
%TO.P,U2,1,RESET*%
%TO.N,unconnected-(U2-RESET-Pad1)*%
X131578299Y-63880499D03*
%TO.P,U2,2,ADC*%
%TO.N,unconnected-(U2-ADC-Pad2)*%
X131578299Y-65880499D03*
%TO.P,U2,3,EN*%
%TO.N,Net-(J1-Pin_2)*%
X131578299Y-67880499D03*
%TO.P,U2,4,IO16*%
%TO.N,unconnected-(U2-IO16-Pad4)*%
X131578299Y-69880499D03*
%TO.P,U2,5,IO14*%
%TO.N,Net-(U1-TRIG)*%
X131578299Y-71880499D03*
%TO.P,U2,6,IO12*%
%TO.N,Net-(U1-ECHO)*%
X131578299Y-73880499D03*
%TO.P,U2,7,IO13*%
%TO.N,unconnected-(U2-IO13-Pad7)*%
X131578299Y-75880499D03*
%TO.P,U2,8,VCC*%
%TO.N,Net-(J1-Pin_2)*%
X131578299Y-77880499D03*
D14*
%TO.P,U2,9,CS0*%
%TO.N,unconnected-(U2-CS0-Pad9)*%
X134078299Y-79380499D03*
%TO.P,U2,10,MISO*%
%TO.N,unconnected-(U2-MISO-Pad10)*%
X136078299Y-79380499D03*
%TO.P,U2,11,IO9*%
%TO.N,unconnected-(U2-IO9-Pad11)*%
X138078299Y-79380499D03*
%TO.P,U2,12,IO10*%
%TO.N,Net-(U2-IO10)*%
X140078299Y-79380499D03*
%TO.P,U2,13,MOSI*%
%TO.N,unconnected-(U2-MOSI-Pad13)*%
X142078299Y-79380499D03*
%TO.P,U2,14,SCLK*%
%TO.N,unconnected-(U2-SCLK-Pad14)*%
X144078299Y-79380499D03*
D13*
%TO.P,U2,15,GND*%
%TO.N,Net-(J1-Pin_3)*%
X146578299Y-77880499D03*
%TO.P,U2,16,IO15*%
%TO.N,unconnected-(U2-IO15-Pad16)*%
X146578299Y-75880499D03*
%TO.P,U2,17,IO2*%
%TO.N,Net-(U2-IO2)*%
X146578299Y-73880499D03*
%TO.P,U2,18,IO0*%
%TO.N,Net-(U2-IO0)*%
X146578299Y-71880499D03*
%TO.P,U2,19,IO4*%
%TO.N,Net-(U2-IO4)*%
X146578299Y-69880499D03*
%TO.P,U2,20,IO5*%
%TO.N,Net-(U2-IO5)*%
X146578299Y-67880499D03*
%TO.P,U2,21,RXD*%
%TO.N,unconnected-(U2-RXD-Pad21)*%
X146578299Y-65880499D03*
%TO.P,U2,22,TXD*%
%TO.N,unconnected-(U2-TXD-Pad22)*%
X146578299Y-63880499D03*
%TD*%
D12*
%TO.P,U3,1,GND*%
%TO.N,Net-(J1-Pin_3)*%
X164846000Y-75438000D03*
%TO.P,U3,2,VCC*%
%TO.N,Net-(J1-Pin_2)*%
X167386000Y-75438000D03*
%TO.P,U3,3,SCL*%
%TO.N,Net-(U2-IO5)*%
X169926000Y-75438000D03*
%TO.P,U3,4,SDA*%
%TO.N,Net-(U2-IO4)*%
X172466000Y-75438000D03*
%TD*%
%TO.P,S2,1*%
%TO.N,Net-(U2-IO2)*%
X186996000Y-94016000D03*
%TO.P,S2,2*%
%TO.N,unconnected-(S2-Pad2)*%
X193496000Y-94016000D03*
%TO.P,S2,3*%
%TO.N,unconnected-(S2-Pad3)*%
X186996000Y-98516000D03*
%TO.P,S2,4*%
%TO.N,Net-(J1-Pin_3)*%
X193496000Y-98516000D03*
%TD*%
D15*
%TO.P,J2,1,Pin_1*%
%TO.N,Net-(J1-Pin_1)*%
X165847000Y-55626000D03*
%TO.P,J2,2,Pin_2*%
%TO.N,Net-(J1-Pin_3)*%
X162847000Y-55626000D03*
%TD*%
D10*
%TO.P,U1,1,VCC*%
%TO.N,Net-(J1-Pin_2)*%
X123444000Y-97301000D03*
%TO.P,U1,2,TRIG*%
%TO.N,Net-(U1-TRIG)*%
X125984000Y-97301000D03*
%TO.P,U1,3,ECHO*%
%TO.N,Net-(U1-ECHO)*%
X128524000Y-97301000D03*
%TO.P,U1,4,GND*%
%TO.N,Net-(J1-Pin_3)*%
X131064000Y-97301000D03*
%TD*%
D16*
%TO.N,Net-(U2-IO0)*%
X198506200Y-71880500D03*
%TO.N,Net-(U2-IO2)*%
X185739400Y-74550000D03*
%TO.N,Net-(U1-TRIG)*%
X128400000Y-71900000D03*
%TO.N,Net-(U1-ECHO)*%
X127000000Y-82500000D03*
X133000000Y-82550000D03*
X127000000Y-74000000D03*
%TO.N,Net-(U2-IO4)*%
X172500000Y-69900000D03*
%TO.N,Net-(U2-IO5)*%
X166150000Y-67900000D03*
%TO.N,Net-(J1-Pin_2)*%
X151500000Y-66000000D03*
X128000000Y-66000000D03*
X123444000Y-80028600D03*
%TD*%
D17*
%TO.N,Net-(U2-IO0)*%
X146578300Y-71880500D02*
X198506200Y-71880500D01*
%TO.N,Net-(U2-IO10)*%
X140734600Y-82078000D02*
X187250000Y-82078000D01*
X140078300Y-79380500D02*
X140078300Y-81421700D01*
X140078300Y-81421700D02*
X140734600Y-82078000D01*
%TO.N,Net-(U2-IO2)*%
X147905200Y-73880500D02*
X146578300Y-73880500D01*
X185739400Y-74550000D02*
X184293500Y-73104100D01*
X148681600Y-73104100D02*
X147905200Y-73880500D01*
X184293500Y-73104100D02*
X148681600Y-73104100D01*
%TO.N,Net-(U1-TRIG)*%
X130251400Y-71880500D02*
X131578300Y-71880500D01*
X128400000Y-71900000D02*
X130231900Y-71900000D01*
X130231900Y-71900000D02*
X130251400Y-71880500D01*
%TO.N,Net-(U1-ECHO)*%
X131578300Y-73880500D02*
X127119500Y-73880500D01*
X132950000Y-82500000D02*
X133000000Y-82550000D01*
X127119500Y-73880500D02*
X127000000Y-74000000D01*
X127000000Y-82500000D02*
X132950000Y-82500000D01*
%TO.N,Net-(U2-IO4)*%
X172416000Y-69880500D02*
X172500000Y-69900000D01*
X172455000Y-69880500D02*
X172435500Y-69880500D01*
X172500000Y-69900000D02*
X172455000Y-69880500D01*
X146578300Y-69880500D02*
X172416000Y-69880500D01*
%TO.N,Net-(U2-IO5)*%
X166130500Y-67880500D02*
X166150000Y-67900000D01*
X146578300Y-67880500D02*
X166130500Y-67880500D01*
%TO.N,Net-(J1-Pin_2)*%
X125619500Y-67880500D02*
X131578300Y-67880500D01*
X127785600Y-77378900D02*
X124000000Y-73593300D01*
X130500000Y-67500000D02*
X131197800Y-67500000D01*
X213700000Y-103300000D02*
X216000000Y-101000000D01*
X131578300Y-77880500D02*
X130251400Y-77880500D01*
X161000000Y-66000000D02*
X151500000Y-66000000D01*
X124000000Y-69500000D02*
X125619500Y-67880500D01*
X161569000Y-66000000D02*
X161000000Y-66000000D01*
X128287200Y-77880500D02*
X127785600Y-77378900D01*
X129443000Y-103300000D02*
X213700000Y-103300000D01*
X164323000Y-63246000D02*
X161569000Y-66000000D01*
X124000000Y-73593300D02*
X124000000Y-69500000D01*
X123444000Y-77556000D02*
X123621100Y-77378900D01*
X123444000Y-80028600D02*
X123444000Y-77556000D01*
X128000000Y-66000000D02*
X129000000Y-66000000D01*
X123621100Y-77378900D02*
X127785600Y-77378900D01*
X129000000Y-66000000D02*
X130500000Y-67500000D01*
X130251400Y-77880500D02*
X128287200Y-77880500D01*
X131197800Y-67500000D02*
X131578300Y-67880500D01*
X123444000Y-97301000D02*
X129443000Y-103300000D01*
%TO.N,Net-(J1-Pin_3)*%
X164846000Y-77880500D02*
X189380500Y-77880500D01*
X197700000Y-100250000D02*
X198450000Y-101000000D01*
X193750000Y-85750000D02*
X193750000Y-86578000D01*
X134013000Y-100250000D02*
X193500000Y-100250000D01*
X189500000Y-78000000D02*
X189500000Y-82328000D01*
X189500000Y-82328000D02*
X193750000Y-86578000D01*
X193496000Y-98516000D02*
X193496000Y-100246000D01*
X193500000Y-100250000D02*
X197700000Y-100250000D01*
X193496000Y-100246000D02*
X193500000Y-100250000D01*
X146578300Y-77880500D02*
X164846000Y-77880500D01*
X198450000Y-101000000D02*
X211000000Y-101000000D01*
X189380500Y-77880500D02*
X189500000Y-78000000D01*
X164846000Y-77880500D02*
X164846000Y-75438000D01*
X131064000Y-97301000D02*
X134013000Y-100250000D01*
%TD*%
M02*
