%TF.GenerationSoftware,KiCad,Pcbnew,(7.0.0)*%
%TF.CreationDate,2025-03-31T13:01:06+03:00*%
%TF.ProjectId,test,74657374-2e6b-4696-9361-645f70636258,rev?*%
%TF.SameCoordinates,Original*%
%TF.FileFunction,Copper,L4,Bot*%
%TF.FilePolarity,Positive*%
%FSLAX46Y46*%
G04 Gerber Fmt 4.6, Leading zero omitted, Abs format (unit mm)*
G04 Created by KiCad (PCBNEW (7.0.0)) date 2025-03-31 13:01:06*
%MOMM*%
%LPD*%
G01*
G04 APERTURE LIST*
%TA.AperFunction,ComponentPad*%
%ADD10C,1.800000*%
%TD*%
%TA.AperFunction,ComponentPad*%
%ADD11O,1.700000X1.700000*%
%TD*%
%TA.AperFunction,ComponentPad*%
%ADD12C,1.600000*%
%TD*%
%TA.AperFunction,ComponentPad*%
%ADD13C,2.000000*%
%TD*%
%TA.AperFunction,ViaPad*%
%ADD14C,0.800000*%
%TD*%
%TA.AperFunction,Conductor*%
%ADD15C,0.250000*%
%TD*%
G04 APERTURE END LIST*
D10*
%TO.P,RV1,1,1*%
%TO.N,Net-(J1-Pin_3)*%
X211000000Y-101000000D03*
%TO.P,RV1,2,2*%
%TO.N,Net-(U2-IO0)*%
X213500000Y-101000000D03*
%TO.P,RV1,3,3*%
%TO.N,Net-(J1-Pin_2)*%
X216000000Y-101000000D03*
%TD*%
D11*
%TO.P,J1,1,Pin_1*%
%TO.N,Net-(J1-Pin_1)*%
X166862999Y-63245999D03*
%TO.P,J1,2,Pin_2*%
%TO.N,Net-(J1-Pin_2)*%
X164322999Y-63245999D03*
%TO.P,J1,3,Pin_3*%
%TO.N,Net-(J1-Pin_3)*%
X161782999Y-63245999D03*
%TD*%
D12*
%TO.P,S1,1*%
%TO.N,Net-(U2-IO10)*%
X187250000Y-82078000D03*
%TO.P,S1,2*%
%TO.N,unconnected-(S1-Pad2)*%
X193750000Y-82078000D03*
%TO.P,S1,3*%
%TO.N,unconnected-(S1-Pad3)*%
X187250000Y-86578000D03*
%TO.P,S1,4*%
%TO.N,Net-(J1-Pin_3)*%
X193750000Y-86578000D03*
%TD*%
%TO.P,U3,1,GND*%
%TO.N,Net-(J1-Pin_3)*%
X164846000Y-75438000D03*
%TO.P,U3,2,VCC*%
%TO.N,Net-(J1-Pin_2)*%
X167386000Y-75438000D03*
%TO.P,U3,3,SCL*%
%TO.N,Net-(U2-IO5)*%
X169926000Y-75438000D03*
%TO.P,U3,4,SDA*%
%TO.N,Net-(U2-IO4)*%
X172466000Y-75438000D03*
%TD*%
%TO.P,S2,1*%
%TO.N,Net-(U2-IO2)*%
X186996000Y-94016000D03*
%TO.P,S2,2*%
%TO.N,unconnected-(S2-Pad2)*%
X193496000Y-94016000D03*
%TO.P,S2,3*%
%TO.N,unconnected-(S2-Pad3)*%
X186996000Y-98516000D03*
%TO.P,S2,4*%
%TO.N,Net-(J1-Pin_3)*%
X193496000Y-98516000D03*
%TD*%
D13*
%TO.P,J2,1,Pin_1*%
%TO.N,Net-(J1-Pin_1)*%
X165847000Y-55626000D03*
%TO.P,J2,2,Pin_2*%
%TO.N,Net-(J1-Pin_3)*%
X162847000Y-55626000D03*
%TD*%
D10*
%TO.P,U1,1,VCC*%
%TO.N,Net-(J1-Pin_2)*%
X123444000Y-97301000D03*
%TO.P,U1,2,TRIG*%
%TO.N,Net-(U1-TRIG)*%
X125984000Y-97301000D03*
%TO.P,U1,3,ECHO*%
%TO.N,Net-(U1-ECHO)*%
X128524000Y-97301000D03*
%TO.P,U1,4,GND*%
%TO.N,Net-(J1-Pin_3)*%
X131064000Y-97301000D03*
%TD*%
D14*
%TO.N,Net-(U2-IO0)*%
X198506200Y-71880500D03*
%TO.N,Net-(U2-IO2)*%
X185739400Y-74550000D03*
%TO.N,Net-(U1-TRIG)*%
X128400000Y-71900000D03*
%TO.N,Net-(U1-ECHO)*%
X127000000Y-82500000D03*
X133000000Y-82550000D03*
X127000000Y-74000000D03*
%TO.N,Net-(U2-IO4)*%
X172500000Y-69900000D03*
%TO.N,Net-(U2-IO5)*%
X166150000Y-67900000D03*
%TO.N,Net-(J1-Pin_2)*%
X151500000Y-66000000D03*
X128000000Y-66000000D03*
X123444000Y-80028600D03*
%TD*%
D15*
%TO.N,Net-(J1-Pin_1)*%
X166863000Y-56642000D02*
X166863000Y-63246000D01*
X165847000Y-55626000D02*
X166863000Y-56642000D01*
%TO.N,Net-(U2-IO0)*%
X198506200Y-96104200D02*
X208604200Y-96104200D01*
X208604200Y-96104200D02*
X213500000Y-101000000D01*
X198506200Y-71880500D02*
X198506200Y-96104200D01*
%TO.N,Net-(U2-IO2)*%
X185150000Y-91089100D02*
X186996000Y-92935100D01*
X186996000Y-92935100D02*
X186996000Y-94016000D01*
X185739400Y-74550000D02*
X185150000Y-75139400D01*
X185150000Y-75139400D02*
X185150000Y-91089100D01*
%TO.N,Net-(U1-TRIG)*%
X128400000Y-71900000D02*
X128560500Y-72060500D01*
X128560500Y-72060500D02*
X128560500Y-94724500D01*
X128560500Y-94724500D02*
X125984000Y-97301000D01*
%TO.N,Net-(U1-ECHO)*%
X127000000Y-74000000D02*
X127000000Y-82500000D01*
X133499700Y-92325300D02*
X128524000Y-97301000D01*
X133499700Y-82550000D02*
X133499700Y-92325300D01*
%TO.N,Net-(U2-IO4)*%
X172466000Y-69934000D02*
X172466000Y-75438000D01*
X172500000Y-69900000D02*
X172466000Y-69934000D01*
%TO.N,Net-(U2-IO5)*%
X166150000Y-71662000D02*
X169926000Y-75438000D01*
X166150000Y-67900000D02*
X166150000Y-71662000D01*
%TO.N,Net-(J1-Pin_2)*%
X123444000Y-97301000D02*
X123444000Y-80028600D01*
X151500000Y-66000000D02*
X128000000Y-66000000D01*
X167386000Y-75438000D02*
X164323000Y-72375000D01*
X164323000Y-72375000D02*
X164323000Y-63246000D01*
%TO.N,Net-(J1-Pin_3)*%
X161783000Y-56690000D02*
X161783000Y-63246000D01*
X195250000Y-96762000D02*
X193496000Y-98516000D01*
X195250000Y-88078000D02*
X195250000Y-96762000D01*
X161783000Y-72375000D02*
X161783000Y-63246000D01*
X164846000Y-75438000D02*
X161783000Y-72375000D01*
X162847000Y-55626000D02*
X161783000Y-56690000D01*
X193750000Y-86578000D02*
X195250000Y-88078000D01*
%TD*%
M02*
